<svg width="524" height="49" viewBox="0 0 524 49" fill="none" xmlns="http://www.w3.org/2000/svg">
<mask id="path-1-outside-1_1_1409" maskUnits="userSpaceOnUse" x="0.0582275" y="7.89893" width="135" height="34" fill="black">
<rect fill="white" x="0.0582275" y="7.89893" width="135" height="34"/>
<path d="M1.49823 20.5789C1.65823 18.2589 2.41823 16.2589 3.77823 14.5789C5.13823 12.8723 6.93823 11.5656 9.17823 10.6589C11.4449 9.72559 14.0049 9.25892 16.8582 9.25892C19.5782 9.25892 21.9516 9.67226 23.9782 10.4989C26.0049 11.3256 27.5916 12.4856 28.7382 13.9789C29.8849 15.4723 30.4582 17.1923 30.4582 19.1389C30.4582 20.6589 30.0582 22.0723 29.2582 23.3789C28.4582 24.6589 27.1916 25.9389 25.4582 27.2189C23.7249 28.4989 21.4449 29.8589 18.6182 31.2989L9.93823 35.8589L9.53823 33.8989H31.2982V39.8989H2.01823V34.6189L14.8982 27.2189C16.9516 26.0456 18.5516 25.0456 19.6982 24.2189C20.8716 23.3656 21.6982 22.5789 22.1782 21.8589C22.6582 21.1389 22.8982 20.3656 22.8982 19.5389C22.8982 18.6856 22.6582 17.9256 22.1782 17.2589C21.7249 16.5923 21.0316 16.0723 20.0982 15.6989C19.1649 15.3256 17.9916 15.1389 16.5782 15.1389C14.8982 15.1389 13.5116 15.3923 12.4182 15.8989C11.3249 16.3789 10.5116 17.0323 9.97823 17.8589C9.44489 18.6856 9.12489 19.5923 9.01823 20.5789H1.49823ZM51.3479 40.5389C47.9612 40.5389 45.0279 39.8856 42.5479 38.5789C40.0679 37.2723 38.1479 35.4589 36.7879 33.1389C35.4279 30.7923 34.7479 28.0456 34.7479 24.8989C34.7479 21.7789 35.4279 19.0456 36.7879 16.6989C38.1479 14.3523 40.0679 12.5256 42.5479 11.2189C45.0279 9.91226 47.9612 9.25892 51.3479 9.25892C54.7079 9.25892 57.6279 9.91226 60.1079 11.2189C62.5879 12.5256 64.5079 14.3523 65.8679 16.6989C67.2279 19.0189 67.9079 21.7523 67.9079 24.8989C67.9079 28.0189 67.2279 30.7523 65.8679 33.0989C64.5079 35.4456 62.5879 37.2723 60.1079 38.5789C57.6279 39.8856 54.7079 40.5389 51.3479 40.5389ZM51.3479 34.3789C54.2012 34.3789 56.4146 33.5523 57.9879 31.8989C59.5879 30.2456 60.3879 27.9123 60.3879 24.8989C60.3879 21.8856 59.5879 19.5523 57.9879 17.8989C56.4146 16.2456 54.2012 15.4189 51.3479 15.4189C48.4946 15.4189 46.2679 16.2456 44.6679 17.8989C43.0679 19.5523 42.2679 21.8856 42.2679 24.8989C42.2679 27.9123 43.0679 30.2456 44.6679 31.8989C46.2679 33.5523 48.4946 34.3789 51.3479 34.3789ZM71.1076 20.5789C71.2676 18.2589 72.0276 16.2589 73.3876 14.5789C74.7476 12.8723 76.5476 11.5656 78.7876 10.6589C81.0543 9.72559 83.6143 9.25892 86.4676 9.25892C89.1876 9.25892 91.5609 9.67226 93.5876 10.4989C95.6143 11.3256 97.2009 12.4856 98.3476 13.9789C99.4943 15.4723 100.068 17.1923 100.068 19.1389C100.068 20.6589 99.6676 22.0723 98.8676 23.3789C98.0676 24.6589 96.8009 25.9389 95.0676 27.2189C93.3343 28.4989 91.0543 29.8589 88.2276 31.2989L79.5476 35.8589L79.1476 33.8989H100.908V39.8989H71.6276V34.6189L84.5076 27.2189C86.5609 26.0456 88.1609 25.0456 89.3076 24.2189C90.4809 23.3656 91.3076 22.5789 91.7876 21.8589C92.2676 21.1389 92.5076 20.3656 92.5076 19.5389C92.5076 18.6856 92.2676 17.9256 91.7876 17.2589C91.3343 16.5923 90.6409 16.0723 89.7076 15.6989C88.7743 15.3256 87.6009 15.1389 86.1876 15.1389C84.5076 15.1389 83.1209 15.3923 82.0276 15.8989C80.9343 16.3789 80.1209 17.0323 79.5876 17.8589C79.0543 18.6856 78.7343 19.5923 78.6276 20.5789H71.1076ZM104.597 19.4989C104.731 17.6056 105.397 15.8856 106.597 14.3389C107.797 12.7923 109.504 11.5656 111.717 10.6589C113.957 9.72559 116.651 9.25892 119.797 9.25892C122.544 9.25892 124.917 9.61892 126.917 10.3389C128.944 11.0323 130.517 12.0056 131.637 13.2589C132.757 14.4856 133.317 15.9389 133.317 17.6189C133.317 18.9789 132.904 20.2189 132.077 21.3389C131.277 22.4323 130.011 23.3123 128.277 23.9789C126.544 24.6189 124.331 24.9256 121.637 24.8989V24.0989C124.197 23.9656 126.397 24.1523 128.237 24.6589C130.077 25.1656 131.491 25.9656 132.477 27.0589C133.464 28.1523 133.957 29.5256 133.957 31.1789C133.957 32.9923 133.384 34.6056 132.237 36.0189C131.091 37.4056 129.411 38.5123 127.197 39.3389C125.011 40.1389 122.344 40.5389 119.197 40.5389C116.131 40.5389 113.451 40.1123 111.157 39.2589C108.891 38.3789 107.117 37.1656 105.837 35.6189C104.584 34.0456 103.904 32.2056 103.797 30.0989H111.317C111.531 31.5656 112.277 32.6989 113.557 33.4989C114.864 34.2723 116.744 34.6589 119.197 34.6589C121.517 34.6589 123.277 34.3123 124.477 33.6189C125.704 32.8989 126.317 31.8989 126.317 30.6189C126.317 29.8723 126.117 29.2589 125.717 28.7789C125.317 28.2723 124.637 27.8856 123.677 27.6189C122.717 27.3523 121.384 27.2189 119.677 27.2189H114.477V22.0589H119.677C121.891 22.0589 123.451 21.7523 124.357 21.1389C125.264 20.4989 125.717 19.6723 125.717 18.6589C125.717 17.5389 125.184 16.6723 124.117 16.0589C123.077 15.4456 121.504 15.1389 119.397 15.1389C117.211 15.1389 115.504 15.5123 114.277 16.2589C113.077 17.0056 112.357 18.0856 112.117 19.4989H104.597Z"/>
</mask>
<path d="M1.49823 20.5789L0.500597 20.5101L0.426887 21.5789H1.49823V20.5789ZM3.77823 14.5789L4.5555 15.2081L4.56029 15.2021L3.77823 14.5789ZM9.17823 10.6589L9.55343 11.5859L9.55898 11.5836L9.17823 10.6589ZM23.9782 10.4989L23.6005 11.4249L23.9782 10.4989ZM28.7382 13.9789L27.9451 14.588V14.588L28.7382 13.9789ZM29.2582 23.3789L30.1063 23.9089L30.1111 23.9011L29.2582 23.3789ZM25.4582 27.2189L26.0523 28.0234L25.4582 27.2189ZM18.6182 31.2989L18.1643 30.4078L18.1532 30.4137L18.6182 31.2989ZM9.93823 35.8589L8.95842 36.0589L9.22465 37.3634L10.4033 36.7442L9.93823 35.8589ZM9.53823 33.8989V32.8989H8.31353L8.55842 34.0989L9.53823 33.8989ZM31.2982 33.8989H32.2982V32.8989H31.2982V33.8989ZM31.2982 39.8989V40.8989H32.2982V39.8989H31.2982ZM2.01823 39.8989H1.01823V40.8989H2.01823V39.8989ZM2.01823 34.6189L1.52006 33.7518L1.01823 34.0402V34.6189H2.01823ZM14.8982 27.2189L14.4021 26.3507L14.4001 26.3518L14.8982 27.2189ZM19.6982 24.2189L20.283 25.0301L20.2864 25.0277L19.6982 24.2189ZM22.1782 21.8589L21.3462 21.3042L22.1782 21.8589ZM22.1782 17.2589L21.3513 17.8212L21.3589 17.8323L21.3667 17.8432L22.1782 17.2589ZM20.0982 15.6989L20.4696 14.7704L20.0982 15.6989ZM12.4182 15.8989L12.8202 16.8146L12.8295 16.8105L12.8387 16.8062L12.4182 15.8989ZM9.97823 17.8589L10.8185 18.4011L9.97823 17.8589ZM9.01823 20.5789V21.5789H9.91595L10.0124 20.6864L9.01823 20.5789ZM2.49586 20.6477C2.64285 18.5163 3.33474 16.7161 4.55547 15.2081L3.00098 13.9497C1.50172 15.8018 0.673605 18.0015 0.500597 20.5101L2.49586 20.6477ZM4.56029 15.2021C5.80186 13.6441 7.4554 12.4351 9.55342 11.5859L8.80304 9.73198C6.42106 10.6961 4.47459 12.1004 2.99617 13.9557L4.56029 15.2021ZM9.55898 11.5836C11.6867 10.7075 14.1144 10.2589 16.8582 10.2589V8.25892C13.8954 8.25892 11.2031 8.74372 8.79748 9.73425L9.55898 11.5836ZM16.8582 10.2589C19.4791 10.2589 21.719 10.6574 23.6005 11.4249L24.3559 9.57299C22.1841 8.68711 19.6773 8.25892 16.8582 8.25892V10.2589ZM23.6005 11.4249C25.4901 12.1956 26.9228 13.2567 27.9451 14.588L29.5314 13.3699C28.2603 11.7145 26.5197 10.4556 24.3559 9.57299L23.6005 11.4249ZM27.9451 14.588C28.9528 15.9003 29.4582 17.4045 29.4582 19.1389H31.4582C31.4582 16.9801 30.817 15.0442 29.5314 13.3699L27.9451 14.588ZM29.4582 19.1389C29.4582 20.4731 29.11 21.7059 28.4054 22.8568L30.1111 23.9011C31.0065 22.4386 31.4582 20.8448 31.4582 19.1389H29.4582ZM28.4102 22.8489C27.6988 23.9871 26.5362 25.1798 24.8642 26.4145L26.0523 28.0234C27.847 26.698 29.2176 25.3307 30.1062 23.9089L28.4102 22.8489ZM24.8642 26.4145C23.1905 27.6505 20.9626 28.9824 18.1643 30.4079L19.0722 32.19C21.9272 30.7355 24.2593 29.3474 26.0523 28.0234L24.8642 26.4145ZM18.1532 30.4137L9.47315 34.9737L10.4033 36.7442L19.0833 32.1842L18.1532 30.4137ZM10.918 35.659L10.518 33.699L8.55842 34.0989L8.95842 36.0589L10.918 35.659ZM9.53823 34.8989H31.2982V32.8989H9.53823V34.8989ZM30.2982 33.8989V39.8989H32.2982V33.8989H30.2982ZM31.2982 38.8989H2.01823V40.8989H31.2982V38.8989ZM3.01823 39.8989V34.6189H1.01823V39.8989H3.01823ZM2.5164 35.486L15.3964 28.086L14.4001 26.3518L1.52006 33.7518L2.5164 35.486ZM15.3944 28.0872C17.4609 26.9063 19.0952 25.8864 20.283 25.0301L19.1134 23.4077C18.0079 24.2048 16.4422 25.1849 14.4021 26.3507L15.3944 28.0872ZM20.2864 25.0277C21.4997 24.1453 22.435 23.2765 23.0103 22.4136L21.3462 21.3042C20.9615 21.8813 20.2434 22.5859 19.1101 23.4102L20.2864 25.0277ZM23.0103 22.4136C23.5944 21.5375 23.8982 20.5725 23.8982 19.5389H21.8982C21.8982 20.1586 21.7221 20.7404 21.3462 21.3042L23.0103 22.4136ZM23.8982 19.5389C23.8982 18.4846 23.5973 17.5184 22.9898 16.6746L21.3667 17.8432C21.7192 18.3328 21.8982 18.8866 21.8982 19.5389H23.8982ZM23.0052 16.6966C22.415 15.8287 21.5421 15.1994 20.4696 14.7704L19.7268 16.6274C20.5211 16.9451 21.0348 17.3558 21.3513 17.8212L23.0052 16.6966ZM20.4696 14.7704C19.3807 14.3349 18.071 14.1389 16.5782 14.1389V16.1389C17.9122 16.1389 18.9491 16.3163 19.7268 16.6274L20.4696 14.7704ZM16.5782 14.1389C14.8066 14.1389 13.2641 14.4048 11.9978 14.9916L12.8387 16.8062C13.759 16.3797 14.9899 16.1389 16.5782 16.1389V14.1389ZM12.0162 14.9833C10.7821 15.5251 9.79843 16.293 9.13793 17.3168L10.8185 18.4011C11.2247 17.7715 11.8677 17.2328 12.8202 16.8146L12.0162 14.9833ZM9.13793 17.3168C8.51937 18.2756 8.14728 19.3313 8.02402 20.4714L10.0124 20.6864C10.1025 19.8532 10.3704 19.0956 10.8185 18.4011L9.13793 17.3168ZM9.01823 19.5789H1.49823V21.5789H9.01823V19.5789ZM42.5479 38.5789L42.0818 39.4636L42.5479 38.5789ZM36.7879 33.1389L35.9227 33.6404L35.9252 33.6446L36.7879 33.1389ZM36.7879 16.6989L35.9227 16.1975L36.7879 16.6989ZM42.5479 11.2189L43.0141 12.1036V12.1036L42.5479 11.2189ZM60.1079 11.2189L59.6418 12.1036V12.1036L60.1079 11.2189ZM65.8679 16.6989L65.0027 17.2004L65.0052 17.2046L65.8679 16.6989ZM65.8679 33.0989L66.7331 33.6003L65.8679 33.0989ZM60.1079 38.5789L60.5741 39.4636L60.1079 38.5789ZM57.9879 31.8989L57.2693 31.2035L57.2635 31.2096L57.9879 31.8989ZM57.9879 17.8989L57.2635 18.5883L57.2693 18.5943L57.9879 17.8989ZM44.6679 17.8989L45.3865 18.5943L44.6679 17.8989ZM44.6679 31.8989L43.9493 32.5943L44.6679 31.8989ZM51.3479 39.5389C48.0902 39.5389 45.3234 38.9109 43.0141 37.6942L42.0818 39.4636C44.7325 40.8602 47.8323 41.5389 51.3479 41.5389V39.5389ZM43.0141 37.6942C40.6917 36.4706 38.9122 34.7854 37.6506 32.6332L35.9252 33.6446C37.3836 36.1325 39.4442 38.0739 42.0818 39.4636L43.0141 37.6942ZM37.6531 32.6375C36.3947 30.4661 35.7479 27.898 35.7479 24.8989H33.7479C33.7479 28.1932 34.4611 31.1184 35.9227 33.6404L37.6531 32.6375ZM35.7479 24.8989C35.7479 21.9282 36.394 19.373 37.6531 17.2003L35.9227 16.1975C34.4619 18.7182 33.7479 21.6297 33.7479 24.8989H35.7479ZM37.6531 17.2003C38.9155 15.0221 40.6946 13.3257 43.0141 12.1036L42.0818 10.3342C39.4412 11.7255 37.3803 13.6824 35.9227 16.1975L37.6531 17.2003ZM43.0141 12.1036C45.3234 10.8869 48.0902 10.2589 51.3479 10.2589V8.25892C47.8323 8.25892 44.7325 8.93761 42.0818 10.3342L43.0141 12.1036ZM51.3479 10.2589C54.5775 10.2589 57.3314 10.8863 59.6418 12.1036L60.5741 10.3342C57.9244 8.93817 54.8383 8.25892 51.3479 8.25892V10.2589ZM59.6418 12.1036C61.9612 13.3257 63.7403 15.0221 65.0027 17.2003L66.7331 16.1975C65.2755 13.6824 63.2146 11.7255 60.5741 10.3342L59.6418 12.1036ZM65.0052 17.2046C66.261 19.3469 66.9079 21.8995 66.9079 24.8989H68.9079C68.9079 21.605 68.1948 18.6909 66.7306 16.1932L65.0052 17.2046ZM66.9079 24.8989C66.9079 27.8697 66.2619 30.4249 65.0027 32.5975L66.7331 33.6003C68.194 31.0797 68.9079 28.1682 68.9079 24.8989H66.9079ZM65.0027 32.5975C63.7403 34.7758 61.9612 36.4721 59.6418 37.6942L60.5741 39.4636C63.2146 38.0724 65.2755 36.1154 66.7331 33.6003L65.0027 32.5975ZM59.6418 37.6942C57.3314 38.9115 54.5775 39.5389 51.3479 39.5389V41.5389C54.8383 41.5389 57.9244 40.8597 60.5741 39.4636L59.6418 37.6942ZM51.3479 35.3789C54.4021 35.3789 56.9053 34.4873 58.7123 32.5883L57.2635 31.2096C55.9239 32.6173 54.0004 33.3789 51.3479 33.3789V35.3789ZM58.7065 32.5943C60.5376 30.7023 61.3879 28.0886 61.3879 24.8989H59.3879C59.3879 27.7359 58.6383 29.7889 57.2693 31.2035L58.7065 32.5943ZM61.3879 24.8989C61.3879 21.7092 60.5376 19.0956 58.7065 17.2035L57.2693 18.5943C58.6383 20.0089 59.3879 22.062 59.3879 24.8989H61.3879ZM58.7123 17.2096C56.9053 15.3106 54.4021 14.4189 51.3479 14.4189V16.4189C54.0004 16.4189 55.9239 17.1806 57.2635 18.5883L58.7123 17.2096ZM51.3479 14.4189C48.2929 14.4189 45.781 15.3108 43.9493 17.2035L45.3865 18.5943C46.7549 17.1804 48.6962 16.4189 51.3479 16.4189V14.4189ZM43.9493 17.2035C42.1183 19.0956 41.2679 21.7092 41.2679 24.8989H43.2679C43.2679 22.062 44.0176 20.0089 45.3865 18.5943L43.9493 17.2035ZM41.2679 24.8989C41.2679 28.0886 42.1183 30.7023 43.9493 32.5943L45.3865 31.2035C44.0176 29.7889 43.2679 27.7359 43.2679 24.8989H41.2679ZM43.9493 32.5943C45.781 34.4871 48.2929 35.3789 51.3479 35.3789V33.3789C48.6962 33.3789 46.7549 32.6175 45.3865 31.2035L43.9493 32.5943ZM71.1076 20.5789L70.11 20.5101L70.0363 21.5789H71.1076V20.5789ZM73.3876 14.5789L74.1649 15.2081L74.1697 15.2021L73.3876 14.5789ZM78.7876 10.6589L79.1628 11.5859L79.1684 11.5836L78.7876 10.6589ZM93.5876 10.4989L93.2099 11.4249L93.5876 10.4989ZM98.3476 13.9789L97.5545 14.588V14.588L98.3476 13.9789ZM98.8676 23.3789L99.7156 23.9089L99.7205 23.9011L98.8676 23.3789ZM95.0676 27.2189L95.6616 28.0234L95.0676 27.2189ZM88.2276 31.2989L87.7736 30.4078L87.7625 30.4137L88.2276 31.2989ZM79.5476 35.8589L78.5678 36.0589L78.834 37.3634L80.0127 36.7442L79.5476 35.8589ZM79.1476 33.8989V32.8989H77.9229L78.1678 34.0989L79.1476 33.8989ZM100.908 33.8989H101.908V32.8989H100.908V33.8989ZM100.908 39.8989V40.8989H101.908V39.8989H100.908ZM71.6276 39.8989H70.6276V40.8989H71.6276V39.8989ZM71.6276 34.6189L71.1294 33.7518L70.6276 34.0402V34.6189H71.6276ZM84.5076 27.2189L84.0115 26.3507L84.0094 26.3518L84.5076 27.2189ZM89.3076 24.2189L89.8924 25.0301L89.8958 25.0277L89.3076 24.2189ZM91.7876 21.8589L90.9556 21.3042L91.7876 21.8589ZM91.7876 17.2589L90.9607 17.8212L90.9682 17.8323L90.9761 17.8432L91.7876 17.2589ZM89.7076 15.6989L90.079 14.7704L89.7076 15.6989ZM82.0276 15.8989L82.4296 16.8146L82.4389 16.8105L82.4481 16.8062L82.0276 15.8989ZM79.5876 17.8589L80.4279 18.4011L79.5876 17.8589ZM78.6276 20.5789V21.5789H79.5253L79.6218 20.6864L78.6276 20.5789ZM72.1052 20.6477C72.2522 18.5163 72.9441 16.7161 74.1648 15.2081L72.6104 13.9497C71.1111 15.8018 70.283 18.0015 70.11 20.5101L72.1052 20.6477ZM74.1697 15.2021C75.4112 13.6441 77.0648 12.4351 79.1628 11.5859L78.4124 9.73198C76.0304 10.6961 74.084 12.1004 72.6055 13.9557L74.1697 15.2021ZM79.1684 11.5836C81.2961 10.7075 83.7237 10.2589 86.4676 10.2589V8.25892C83.5048 8.25892 80.8124 8.74372 78.4069 9.73425L79.1684 11.5836ZM86.4676 10.2589C89.0885 10.2589 91.3284 10.6574 93.2099 11.4249L93.9653 9.57299C91.7935 8.68711 89.2867 8.25892 86.4676 8.25892V10.2589ZM93.2099 11.4249C95.0994 12.1956 96.5322 13.2567 97.5545 14.588L99.1408 13.3699C97.8697 11.7145 96.1291 10.4556 93.9653 9.57299L93.2099 11.4249ZM97.5545 14.588C98.5622 15.9003 99.0676 17.4045 99.0676 19.1389H101.068C101.068 16.9801 100.426 15.0442 99.1408 13.3699L97.5545 14.588ZM99.0676 19.1389C99.0676 20.4731 98.7193 21.7059 98.0148 22.8568L99.7205 23.9011C100.616 22.4386 101.068 20.8448 101.068 19.1389H99.0676ZM98.0196 22.8489C97.3082 23.9871 96.1455 25.1798 94.4736 26.4145L95.6616 28.0234C97.4563 26.698 98.827 25.3307 99.7156 23.9089L98.0196 22.8489ZM94.4736 26.4145C92.7998 27.6505 90.572 28.9824 87.7737 30.4079L88.6815 32.19C91.5366 30.7355 93.8687 29.3474 95.6616 28.0234L94.4736 26.4145ZM87.7625 30.4137L79.0825 34.9737L80.0127 36.7442L88.6927 32.1842L87.7625 30.4137ZM80.5274 35.659L80.1274 33.699L78.1678 34.0989L78.5678 36.0589L80.5274 35.659ZM79.1476 34.8989H100.908V32.8989H79.1476V34.8989ZM99.9076 33.8989V39.8989H101.908V33.8989H99.9076ZM100.908 38.8989H71.6276V40.8989H100.908V38.8989ZM72.6276 39.8989V34.6189H70.6276V39.8989H72.6276ZM72.1258 35.486L85.0058 28.086L84.0094 26.3518L71.1294 33.7518L72.1258 35.486ZM85.0037 28.0872C87.0703 26.9063 88.7046 25.8864 89.8924 25.0301L88.7228 23.4077C87.6172 24.2048 86.0516 25.1849 84.0115 26.3507L85.0037 28.0872ZM89.8958 25.0277C91.1091 24.1453 92.0444 23.2765 92.6197 22.4136L90.9556 21.3042C90.5708 21.8813 89.8528 22.5859 88.7194 23.4102L89.8958 25.0277ZM92.6197 22.4136C93.2038 21.5375 93.5076 20.5725 93.5076 19.5389H91.5076C91.5076 20.1586 91.3315 20.7404 90.9556 21.3042L92.6197 22.4136ZM93.5076 19.5389C93.5076 18.4846 93.2066 17.5184 92.5991 16.6746L90.9761 17.8432C91.3286 18.3328 91.5076 18.8866 91.5076 19.5389H93.5076ZM92.6145 16.6966C92.0243 15.8287 91.1514 15.1994 90.079 14.7704L89.3362 16.6274C90.1304 16.9451 90.6442 17.3558 90.9607 17.8212L92.6145 16.6966ZM90.079 14.7704C88.9901 14.3349 87.6803 14.1389 86.1876 14.1389V16.1389C87.5215 16.1389 88.5585 16.3163 89.3362 16.6274L90.079 14.7704ZM86.1876 14.1389C84.416 14.1389 82.8735 14.4048 81.6071 14.9916L82.4481 16.8062C83.3684 16.3797 84.5992 16.1389 86.1876 16.1389V14.1389ZM81.6256 14.9833C80.3915 15.5251 79.4078 16.293 78.7473 17.3168L80.4279 18.4011C80.8341 17.7715 81.477 17.2328 82.4296 16.8146L81.6256 14.9833ZM78.7473 17.3168C78.1287 18.2756 77.7567 19.3313 77.6334 20.4714L79.6218 20.6864C79.7119 19.8532 79.9798 19.0956 80.4279 18.4011L78.7473 17.3168ZM78.6276 19.5789H71.1076V21.5789H78.6276V19.5789ZM104.597 19.4989L103.6 19.4287L103.524 20.4989H104.597V19.4989ZM106.597 14.3389L105.807 13.7259L106.597 14.3389ZM111.717 10.6589L112.096 11.5843L112.102 11.582L111.717 10.6589ZM126.917 10.3389L126.579 11.2798L126.586 11.2825L126.594 11.2851L126.917 10.3389ZM131.637 13.2589L130.892 13.9253L130.899 13.9332L131.637 13.2589ZM132.077 21.3389L131.273 20.7451L131.27 20.7484L132.077 21.3389ZM128.277 23.9789L128.624 24.9171L128.636 24.9123L128.277 23.9789ZM121.637 24.8989H120.637V25.8891L121.627 25.8989L121.637 24.8989ZM121.637 24.0989L121.585 23.1003L120.637 23.1497V24.0989H121.637ZM132.237 36.0189L133.008 36.6562L133.014 36.649L132.237 36.0189ZM127.197 39.3389L127.541 40.2781L127.547 40.2757L127.197 39.3389ZM111.157 39.2589L110.795 40.1912L110.809 40.1961L111.157 39.2589ZM105.837 35.6189L105.055 36.242L105.061 36.2493L105.067 36.2565L105.837 35.6189ZM103.797 30.0989V29.0989H102.745L102.799 30.1495L103.797 30.0989ZM111.317 30.0989L112.307 29.955L112.182 29.0989H111.317V30.0989ZM113.557 33.4989L113.027 34.3469L113.038 34.3533L113.048 34.3595L113.557 33.4989ZM124.477 33.6189L124.978 34.4848L124.983 34.4813L124.477 33.6189ZM125.717 28.7789L124.932 29.3986L124.941 29.4089L124.949 29.4191L125.717 28.7789ZM123.677 27.6189L123.41 28.5824L123.677 27.6189ZM114.477 27.2189H113.477V28.2189H114.477V27.2189ZM114.477 22.0589V21.0589H113.477V22.0589H114.477ZM124.357 21.1389L124.918 21.9672L124.926 21.9616L124.934 21.9559L124.357 21.1389ZM124.117 16.0589L123.609 16.9203L123.619 16.9258L124.117 16.0589ZM114.277 16.2589L113.757 15.4047L113.749 15.4099L114.277 16.2589ZM112.117 19.4989V20.4989H112.962L113.103 19.6663L112.117 19.4989ZM105.595 19.5692C105.714 17.8798 106.305 16.3474 107.387 14.9519L105.807 13.7259C104.49 15.4238 103.747 17.3314 103.6 19.4287L105.595 19.5692ZM107.387 14.9519C108.459 13.5712 110.009 12.4393 112.096 11.5843L111.338 9.73356C108.999 10.6919 107.136 12.0133 105.807 13.7259L107.387 14.9519ZM112.102 11.582C114.19 10.7121 116.745 10.2589 119.797 10.2589V8.25892C116.556 8.25892 113.725 8.7391 111.333 9.73585L112.102 11.582ZM119.797 10.2589C122.461 10.2589 124.714 10.6085 126.579 11.2798L127.256 9.39804C125.121 8.62938 122.627 8.25892 119.797 8.25892V10.2589ZM126.594 11.2851C128.502 11.9378 129.913 12.8303 130.892 13.9253L132.383 12.5926C131.121 11.1809 129.386 10.1267 127.241 9.39276L126.594 11.2851ZM130.899 13.9332C131.848 14.9733 132.317 16.1853 132.317 17.6189H134.317C134.317 15.6926 133.666 13.9979 132.376 12.5847L130.899 13.9332ZM132.317 17.6189C132.317 18.7598 131.976 19.7927 131.273 20.7451L132.882 21.9328C133.832 20.6452 134.317 19.198 134.317 17.6189H132.317ZM131.27 20.7484C130.618 21.6393 129.537 22.4231 127.918 23.0456L128.636 24.9123C130.485 24.2014 131.936 23.2252 132.884 21.9294L131.27 20.7484ZM127.931 23.0408C126.351 23.6242 124.27 23.9249 121.647 23.899L121.627 25.8989C124.392 25.9262 126.737 25.6137 128.624 24.917L127.931 23.0408ZM122.637 24.8989V24.0989H120.637V24.8989H122.637ZM121.689 25.0976C124.177 24.968 126.264 25.1527 127.972 25.623L128.503 23.6948C126.531 23.1518 124.218 22.9632 121.585 23.1003L121.689 25.0976ZM127.972 25.623C129.682 26.0939 130.909 26.8133 131.735 27.7289L133.22 26.389C132.073 25.1179 130.473 24.2373 128.503 23.6948L127.972 25.623ZM131.735 27.7289C132.535 28.6156 132.957 29.7405 132.957 31.1789H134.957C134.957 29.3107 134.393 27.6889 133.22 26.389L131.735 27.7289ZM132.957 31.1789C132.957 32.7619 132.463 34.153 131.461 35.3889L133.014 36.649C134.304 35.0582 134.957 33.2226 134.957 31.1789H132.957ZM131.467 35.3817C130.461 36.5975 128.947 37.6181 126.847 38.4021L127.547 40.2757C129.875 39.4064 131.72 38.2137 133.008 36.6562L131.467 35.3817ZM126.854 38.3998C124.808 39.1481 122.265 39.5389 119.197 39.5389V41.5389C122.423 41.5389 125.213 41.1297 127.541 40.278L126.854 38.3998ZM119.197 39.5389C116.221 39.5389 113.664 39.1245 111.506 38.3217L110.809 40.1961C113.238 41.1 116.041 41.5389 119.197 41.5389V39.5389ZM111.519 38.3267C109.378 37.4955 107.758 36.3715 106.608 34.9814L105.067 36.2565C106.476 37.9597 108.403 39.2624 110.795 40.1911L111.519 38.3267ZM106.619 34.9958C105.503 33.5943 104.893 31.957 104.796 30.0484L102.799 30.1495C102.915 32.4541 103.665 34.4969 105.055 36.242L106.619 34.9958ZM103.797 31.0989H111.317V29.0989H103.797V31.0989ZM110.328 30.2429C110.584 32.0065 111.503 33.3945 113.027 34.3469L114.087 32.6509C113.051 32.0034 112.477 31.1247 112.307 29.955L110.328 30.2429ZM113.048 34.3595C114.576 35.2641 116.664 35.6589 119.197 35.6589V33.6589C116.824 33.6589 115.152 33.2805 114.067 32.6383L113.048 34.3595ZM119.197 35.6589C121.588 35.6589 123.555 35.3067 124.978 34.4848L123.977 32.7531C123 33.3178 121.446 33.6589 119.197 33.6589V35.6589ZM124.983 34.4813C126.475 33.6059 127.317 32.2987 127.317 30.6189H125.317C125.317 31.4991 124.933 32.192 123.971 32.7565L124.983 34.4813ZM127.317 30.6189C127.317 29.6859 127.063 28.8319 126.486 28.1387L124.949 29.4191C125.171 29.6859 125.317 30.0586 125.317 30.6189H127.317ZM126.502 28.1593C125.917 27.4175 125.005 26.95 123.945 26.6554L123.41 28.5824C124.269 28.8212 124.718 29.127 124.932 29.3986L126.502 28.1593ZM123.945 26.6554C122.857 26.3533 121.42 26.2189 119.677 26.2189V28.2189C121.348 28.2189 122.577 28.3512 123.41 28.5824L123.945 26.6554ZM119.677 26.2189H114.477V28.2189H119.677V26.2189ZM115.477 27.2189V22.0589H113.477V27.2189H115.477ZM114.477 23.0589H119.677V21.0589H114.477V23.0589ZM119.677 23.0589C121.922 23.0589 123.747 22.7594 124.918 21.9672L123.797 20.3106C123.155 20.7451 121.859 21.0589 119.677 21.0589V23.0589ZM124.934 21.9559C126.077 21.1494 126.717 20.0317 126.717 18.6589H124.717C124.717 19.3128 124.451 19.8485 123.781 20.322L124.934 21.9559ZM126.717 18.6589C126.717 17.1402 125.956 15.9624 124.616 15.192L123.619 16.9258C124.412 17.3821 124.717 17.9377 124.717 18.6589H126.717ZM124.625 15.1976C123.355 14.4486 121.567 14.1389 119.397 14.1389V16.1389C121.441 16.1389 122.799 16.4425 123.609 16.9203L124.625 15.1976ZM119.397 14.1389C117.116 14.1389 115.202 14.5253 113.757 15.4047L114.797 17.1131C115.806 16.4993 117.305 16.1389 119.397 16.1389V14.1389ZM113.749 15.4099C112.302 16.3102 111.419 17.6406 111.131 19.3315L113.103 19.6663C113.296 18.5306 113.853 17.7009 114.806 17.108L113.749 15.4099ZM112.117 18.4989H104.597V20.4989H112.117V18.4989Z" fill="#8F8FFF" mask="url(#path-1-outside-1_1_1409)"/>
<mask id="path-3-outside-2_1_1409" maskUnits="userSpaceOnUse" x="160.058" y="7.89893" width="364" height="34" fill="black">
<rect fill="white" x="160.058" y="7.89893" width="364" height="34"/>
<path d="M182.778 25.1789L183.418 23.6989C185.765 23.7523 187.685 24.1123 189.178 24.7789C190.698 25.4456 191.818 26.3656 192.538 27.5389C193.285 28.6856 193.658 30.0189 193.658 31.5389C193.658 33.1389 193.285 34.5789 192.538 35.8589C191.792 37.1123 190.672 38.0989 189.178 38.8189C187.712 39.5389 185.872 39.8989 183.658 39.8989H162.058L164.378 24.4989L162.058 9.89892H182.898C185.672 9.89892 187.818 10.5523 189.338 11.8589C190.885 13.1389 191.658 14.9123 191.658 17.1789C191.658 18.4323 191.365 19.6323 190.778 20.7789C190.192 21.9256 189.258 22.8989 187.978 23.6989C186.698 24.4723 184.965 24.9656 182.778 25.1789ZM169.498 38.0589L166.618 34.4989H181.858C183.165 34.4989 184.178 34.1923 184.898 33.5789C185.645 32.9389 186.018 32.0456 186.018 30.8989C186.018 29.7523 185.605 28.8456 184.778 28.1789C183.978 27.4856 182.778 27.1389 181.178 27.1389H168.698V21.8589H180.218C181.312 21.8589 182.218 21.5523 182.938 20.9389C183.658 20.2989 184.018 19.4323 184.018 18.3389C184.018 17.4589 183.712 16.7389 183.098 16.1789C182.485 15.5923 181.592 15.2989 180.418 15.2989H166.658L169.498 11.7389L171.618 24.4989L169.498 38.0589ZM205.499 9.89892V36.5389L202.099 33.2189H224.579V39.8989H197.939V9.89892H205.499ZM233.613 33.8589V27.7789H254.333V33.8589H233.613ZM249.053 9.89892L262.893 39.8989H254.853L242.973 13.0589H245.293L233.453 39.8989H225.413L239.253 9.89892H249.053ZM297.109 27.4989C296.816 30.0856 295.923 32.3656 294.429 34.3389C292.936 36.2856 290.963 37.8056 288.509 38.8989C286.056 39.9923 283.256 40.5389 280.109 40.5389C276.669 40.5389 273.642 39.8856 271.029 38.5789C268.442 37.2723 266.429 35.4456 264.989 33.0989C263.549 30.7523 262.829 28.0189 262.829 24.8989C262.829 21.7789 263.549 19.0456 264.989 16.6989C266.429 14.3523 268.442 12.5256 271.029 11.2189C273.642 9.91226 276.669 9.25892 280.109 9.25892C283.256 9.25892 286.056 9.80559 288.509 10.8989C290.963 11.9923 292.936 13.5123 294.429 15.4589C295.923 17.4056 296.816 19.6856 297.109 22.2989H289.509C289.242 20.9389 288.696 19.7789 287.869 18.8189C287.069 17.8589 286.003 17.1256 284.669 16.6189C283.362 16.0856 281.842 15.8189 280.109 15.8189C278.109 15.8189 276.389 16.1923 274.949 16.9389C273.509 17.6589 272.402 18.6989 271.629 20.0589C270.856 21.4189 270.469 23.0323 270.469 24.8989C270.469 26.7656 270.856 28.3789 271.629 29.7389C272.402 31.0989 273.509 32.1523 274.949 32.8989C276.389 33.6189 278.109 33.9789 280.109 33.9789C281.842 33.9789 283.362 33.7256 284.669 33.2189C286.003 32.7123 287.069 31.9789 287.869 31.0189C288.696 30.0589 289.242 28.8856 289.509 27.4989H297.109ZM301.338 39.8989V9.89892H308.858V33.8589L306.818 32.2989L324.578 9.89892H332.578L308.138 39.8989H301.338ZM315.698 25.3789L321.138 20.6989L332.978 39.8989H324.418L315.698 25.3789ZM348.807 22.3789H370.527V28.8189H348.807V22.3789ZM371.247 9.89892V16.3389H348.967L352.687 12.6189V39.8989H345.127V9.89892H371.247ZM380.874 23.0989H392.114C393.528 23.0989 394.648 22.7789 395.474 22.1389C396.301 21.4723 396.714 20.5523 396.714 19.3789C396.714 18.2056 396.301 17.2989 395.474 16.6589C394.648 15.9923 393.528 15.6589 392.114 15.6589H379.794L383.194 11.9389V39.8989H375.634V9.89892H393.114C395.354 9.89892 397.314 10.2989 398.994 11.0989C400.674 11.8989 401.981 13.0056 402.914 14.4189C403.848 15.8323 404.314 17.4856 404.314 19.3789C404.314 21.2456 403.848 22.8856 402.914 24.2989C401.981 25.7123 400.674 26.8189 398.994 27.6189C397.314 28.3923 395.354 28.7789 393.114 28.7789H380.874V23.0989ZM385.714 25.8589H394.234L405.274 39.8989H396.514L385.714 25.8589ZM409.228 9.89892H416.788V39.8989H409.228V9.89892ZM437.267 9.89892C440.787 9.89892 443.867 10.5256 446.507 11.7789C449.147 13.0323 451.2 14.7789 452.667 17.0189C454.16 19.2589 454.907 21.8856 454.907 24.8989C454.907 27.8856 454.16 30.5123 452.667 32.7789C451.2 35.0189 449.147 36.7656 446.507 38.0189C443.867 39.2723 440.787 39.8989 437.267 39.8989H422.627V9.89892H437.267ZM430.147 36.8189L426.467 33.2189H437.827C439.747 33.2189 441.413 32.8723 442.827 32.1789C444.24 31.4856 445.333 30.5256 446.107 29.2989C446.88 28.0456 447.267 26.5789 447.267 24.8989C447.267 23.1923 446.88 21.7256 446.107 20.4989C445.333 19.2723 444.24 18.3123 442.827 17.6189C441.413 16.9256 439.747 16.5789 437.827 16.5789H426.467L430.147 12.9789V36.8189ZM462.909 33.8589V27.7789H483.629V33.8589H462.909ZM478.349 9.89892L492.189 39.8989H484.149L472.269 13.0589H474.589L462.749 39.8989H454.709L468.549 9.89892H478.349ZM500.436 39.8989V25.3789H507.996V39.8989H500.436ZM486.356 9.89892H494.716L505.916 24.1389H502.436L513.636 9.89892H521.996L506.636 29.4189L501.756 29.4989L486.356 9.89892Z"/>
</mask>
<path d="M182.778 25.1789L181.86 24.782L181.187 26.3389L182.875 26.1742L182.778 25.1789ZM183.418 23.6989L183.441 22.6992L182.768 22.6839L182.5 23.302L183.418 23.6989ZM189.178 24.7789L188.771 25.6921L188.777 25.6947L189.178 24.7789ZM192.538 27.5389L191.686 28.0619L191.693 28.0734L191.7 28.0846L192.538 27.5389ZM192.538 35.8589L193.397 36.3708L193.402 36.3628L192.538 35.8589ZM189.178 38.8189L188.744 37.9181L188.738 37.9213L189.178 38.8189ZM162.058 39.8989L161.069 39.75L160.896 40.8989H162.058V39.8989ZM164.378 24.4989L165.367 24.6479L165.39 24.4948L165.366 24.342L164.378 24.4989ZM162.058 9.89892V8.89892H160.887L161.071 10.0559L162.058 9.89892ZM189.338 11.8589L188.686 12.6172L188.693 12.6233L188.701 12.6293L189.338 11.8589ZM190.778 20.7789L189.888 20.3235L190.778 20.7789ZM187.978 23.6989L188.495 24.5548L188.502 24.5509L188.508 24.5469L187.978 23.6989ZM169.498 38.0589L168.721 38.6879L170.138 40.4399L170.486 38.2134L169.498 38.0589ZM166.618 34.4989V33.4989H164.523L165.841 35.1279L166.618 34.4989ZM184.898 33.5789L185.547 34.3402L185.549 34.3382L184.898 33.5789ZM184.778 28.1789L184.123 28.9346L184.137 28.9462L184.15 28.9573L184.778 28.1789ZM168.698 27.1389H167.698V28.1389H168.698V27.1389ZM168.698 21.8589V20.8589H167.698V21.8589H168.698ZM182.938 20.9389L183.587 21.7002L183.595 21.6933L183.603 21.6863L182.938 20.9389ZM183.098 16.1789L182.407 16.9016L182.415 16.9096L182.424 16.9174L183.098 16.1789ZM166.658 15.2989L165.877 14.6753L164.581 16.2989H166.658V15.2989ZM169.498 11.7389L170.485 11.575L170.117 9.36011L168.717 11.1153L169.498 11.7389ZM171.618 24.4989L172.606 24.6534L172.631 24.4941L172.605 24.335L171.618 24.4989ZM183.696 25.5758L184.336 24.0958L182.5 23.302L181.86 24.782L183.696 25.5758ZM183.396 24.6987C185.663 24.7502 187.439 25.0977 188.771 25.6921L189.586 23.8658C187.931 23.1268 185.867 22.7543 183.441 22.6992L183.396 24.6987ZM188.777 25.6947C190.149 26.2966 191.093 27.0956 191.686 28.0619L193.391 27.0159C192.544 25.6356 191.248 24.5946 189.58 23.8631L188.777 25.6947ZM191.7 28.0846C192.33 29.0512 192.658 30.1904 192.658 31.5389H194.658C194.658 29.8474 194.24 28.32 193.376 26.9933L191.7 28.0846ZM192.658 31.5389C192.658 32.9765 192.325 34.2401 191.674 35.3551L193.402 36.3628C194.245 34.9177 194.658 33.3014 194.658 31.5389H192.658ZM191.679 35.3471C191.046 36.4097 190.085 37.2714 188.744 37.9182L189.613 39.7197C191.258 38.9265 192.537 37.8148 193.397 36.3707L191.679 35.3471ZM188.738 37.9213C187.448 38.5544 185.77 38.8989 183.658 38.8989V40.8989C185.973 40.8989 187.975 40.5234 189.619 39.7166L188.738 37.9213ZM183.658 38.8989H162.058V40.8989H183.658V38.8989ZM163.047 40.0479L165.367 24.6479L163.389 24.35L161.069 39.75L163.047 40.0479ZM165.366 24.342L163.046 9.74199L161.071 10.0559L163.391 24.6559L165.366 24.342ZM162.058 10.8989H182.898V8.89892H162.058V10.8989ZM182.898 10.8989C185.524 10.8989 187.407 11.5173 188.686 12.6172L189.99 11.1006C188.23 9.58723 185.819 8.89892 182.898 8.89892V10.8989ZM188.701 12.6293C189.986 13.6934 190.658 15.167 190.658 17.1789H192.658C192.658 14.6576 191.783 12.5845 189.976 11.0885L188.701 12.6293ZM190.658 17.1789C190.658 18.2694 190.405 19.3137 189.888 20.3235L191.668 21.2344C192.325 19.9508 192.658 18.5951 192.658 17.1789H190.658ZM189.888 20.3235C189.397 21.2832 188.602 22.1301 187.448 22.8509L188.508 24.5469C189.915 23.6677 190.986 22.5679 191.668 21.2344L189.888 20.3235ZM187.461 22.843C186.355 23.5115 184.783 23.9786 182.681 24.1836L182.875 26.1742C185.146 25.9526 187.042 25.433 188.495 24.5548L187.461 22.843ZM170.276 37.43L167.396 33.87L165.841 35.1279L168.721 38.6879L170.276 37.43ZM166.618 35.4989H181.858V33.4989H166.618V35.4989ZM181.858 35.4989C183.312 35.4989 184.587 35.1575 185.547 34.3402L184.25 32.8177C183.769 33.227 183.018 33.4989 181.858 33.4989V35.4989ZM185.549 34.3382C186.555 33.4758 187.018 32.2838 187.018 30.8989H185.018C185.018 31.8073 184.735 32.402 184.247 32.8197L185.549 34.3382ZM187.018 30.8989C187.018 29.4775 186.489 28.2737 185.406 27.4005L184.15 28.9573C184.721 29.4175 185.018 30.0271 185.018 30.8989H187.018ZM185.433 27.4232C184.378 26.5089 182.9 26.1389 181.178 26.1389V28.1389C182.656 28.1389 183.578 28.4623 184.123 28.9346L185.433 27.4232ZM181.178 26.1389H168.698V28.1389H181.178V26.1389ZM169.698 27.1389V21.8589H167.698V27.1389H169.698ZM168.698 22.8589H180.218V20.8589H168.698V22.8589ZM180.218 22.8589C181.51 22.8589 182.658 22.4913 183.587 21.7002L182.29 20.1777C181.778 20.6133 181.113 20.8589 180.218 20.8589V22.8589ZM183.603 21.6863C184.566 20.8299 185.018 19.6751 185.018 18.3389H183.018C183.018 19.1894 182.75 19.768 182.274 20.1915L183.603 21.6863ZM185.018 18.3389C185.018 17.1968 184.607 16.2023 183.772 15.4404L182.424 16.9174C182.816 17.2756 183.018 17.7211 183.018 18.3389H185.018ZM183.789 15.4563C182.929 14.6329 181.749 14.2989 180.418 14.2989V16.2989C181.434 16.2989 182.041 16.5516 182.407 16.9016L183.789 15.4563ZM180.418 14.2989H166.658V16.2989H180.418V14.2989ZM167.44 15.9225L170.28 12.3625L168.717 11.1153L165.877 14.6753L167.44 15.9225ZM168.512 11.9028L170.632 24.6628L172.605 24.335L170.485 11.575L168.512 11.9028ZM170.63 24.3445L168.51 37.9045L170.486 38.2134L172.606 24.6534L170.63 24.3445ZM205.499 9.89892H206.499V8.89892H205.499V9.89892ZM205.499 36.5389L204.801 37.2544L206.499 38.9131V36.5389H205.499ZM202.099 33.2189V32.2189H199.644L201.401 33.9344L202.099 33.2189ZM224.579 33.2189H225.579V32.2189H224.579V33.2189ZM224.579 39.8989V40.8989H225.579V39.8989H224.579ZM197.939 39.8989H196.939V40.8989H197.939V39.8989ZM197.939 9.89892V8.89892H196.939V9.89892H197.939ZM204.499 9.89892V36.5389H206.499V9.89892H204.499ZM206.198 35.8235L202.798 32.5035L201.401 33.9344L204.801 37.2544L206.198 35.8235ZM202.099 34.2189H224.579V32.2189H202.099V34.2189ZM223.579 33.2189V39.8989H225.579V33.2189H223.579ZM224.579 38.8989H197.939V40.8989H224.579V38.8989ZM198.939 39.8989V9.89892H196.939V39.8989H198.939ZM197.939 10.8989H205.499V8.89892H197.939V10.8989ZM233.613 33.8589H232.613V34.8589H233.613V33.8589ZM233.613 27.7789V26.7789H232.613V27.7789H233.613ZM254.333 27.7789H255.333V26.7789H254.333V27.7789ZM254.333 33.8589V34.8589H255.333V33.8589H254.333ZM249.053 9.89892L249.961 9.48002L249.693 8.89892H249.053V9.89892ZM262.893 39.8989V40.8989H264.455L263.801 39.48L262.893 39.8989ZM254.853 39.8989L253.938 40.3037L254.202 40.8989H254.853V39.8989ZM242.973 13.0589V12.0589H241.436L242.058 13.4637L242.973 13.0589ZM245.293 13.0589L246.208 13.4625L246.827 12.0589H245.293V13.0589ZM233.453 39.8989V40.8989H234.104L234.368 40.3025L233.453 39.8989ZM225.413 39.8989L224.505 39.48L223.85 40.8989H225.413V39.8989ZM239.253 9.89892V8.89892H238.613L238.345 9.48002L239.253 9.89892ZM234.613 33.8589V27.7789H232.613V33.8589H234.613ZM233.613 28.7789H254.333V26.7789H233.613V28.7789ZM253.333 27.7789V33.8589H255.333V27.7789H253.333ZM254.333 32.8589H233.613V34.8589H254.333V32.8589ZM248.145 10.3178L261.985 40.3178L263.801 39.48L249.961 9.48002L248.145 10.3178ZM262.893 38.8989H254.853V40.8989H262.893V38.8989ZM255.767 39.4942L243.887 12.6542L242.058 13.4637L253.938 40.3037L255.767 39.4942ZM242.973 14.0589H245.293V12.0589H242.973V14.0589ZM244.378 12.6553L232.538 39.4953L234.368 40.3025L246.208 13.4625L244.378 12.6553ZM233.453 38.8989H225.413V40.8989H233.453V38.8989ZM226.321 40.3178L240.161 10.3178L238.345 9.48002L224.505 39.48L226.321 40.3178ZM239.253 10.8989H249.053V8.89892H239.253V10.8989ZM297.109 27.4989L298.103 27.6116L298.229 26.4989H297.109V27.4989ZM294.429 34.3389L295.223 34.9476L295.227 34.9424L294.429 34.3389ZM288.509 38.8989L288.102 37.9855L288.509 38.8989ZM271.029 38.5789L270.578 39.4715L270.582 39.4734L271.029 38.5789ZM264.989 33.0989L264.137 33.6219L264.989 33.0989ZM264.989 16.6989L264.137 16.1759L264.989 16.6989ZM271.029 11.2189L270.582 10.3245L270.578 10.3263L271.029 11.2189ZM294.429 15.4589L293.636 16.0676V16.0676L294.429 15.4589ZM297.109 22.2989V23.2989H298.228L298.103 22.1874L297.109 22.2989ZM289.509 22.2989L288.528 22.4913L288.686 23.2989H289.509V22.2989ZM287.869 18.8189L287.101 19.4591L287.106 19.4653L287.111 19.4714L287.869 18.8189ZM284.669 16.6189L284.291 17.5448L284.303 17.5494L284.314 17.5537L284.669 16.6189ZM274.949 16.9389L275.396 17.8334L275.403 17.8301L275.409 17.8267L274.949 16.9389ZM271.629 20.0589L272.498 20.5532L271.629 20.0589ZM271.629 29.7389L270.76 30.2332V30.2332L271.629 29.7389ZM274.949 32.8989L274.489 33.7867L274.495 33.7901L274.502 33.7934L274.949 32.8989ZM284.669 33.2189L284.314 32.2841L284.308 32.2866L284.669 33.2189ZM287.869 31.0189L287.111 30.3664L287.106 30.3725L287.101 30.3787L287.869 31.0189ZM289.509 27.4989V26.4989H288.683L288.527 27.3101L289.509 27.4989ZM296.116 27.3862C295.841 29.8043 295.011 31.9127 293.632 33.7355L295.227 34.9424C296.834 32.8185 297.79 30.3668 298.103 27.6116L296.116 27.3862ZM293.636 33.7303C292.253 35.5325 290.418 36.9534 288.102 37.9855L288.916 39.8123C291.507 38.6578 293.618 37.0387 295.223 34.9476L293.636 33.7303ZM288.102 37.9855C285.797 39.0128 283.139 39.5389 280.109 39.5389V41.5389C283.372 41.5389 286.315 40.9717 288.916 39.8123L288.102 37.9855ZM280.109 39.5389C276.797 39.5389 273.928 38.9104 271.476 37.6845L270.582 39.4734C273.357 40.8607 276.541 41.5389 280.109 41.5389V39.5389ZM271.48 37.6863C269.05 36.4587 267.179 34.7561 265.841 32.5759L264.137 33.6219C265.679 36.1351 267.835 38.0858 270.578 39.4715L271.48 37.6863ZM265.841 32.5759C264.51 30.4068 263.829 27.8595 263.829 24.8989H261.829C261.829 28.1784 262.588 31.0977 264.137 33.6219L265.841 32.5759ZM263.829 24.8989C263.829 21.9384 264.51 19.3911 265.841 17.2219L264.137 16.1759C262.588 18.7001 261.829 21.6195 261.829 24.8989H263.829ZM265.841 17.2219C267.179 15.0418 269.05 13.3392 271.48 12.1115L270.578 10.3263C267.835 11.712 265.679 13.6628 264.137 16.1759L265.841 17.2219ZM271.476 12.1134C273.928 10.8874 276.797 10.2589 280.109 10.2589V8.25892C276.541 8.25892 273.357 8.9371 270.582 10.3245L271.476 12.1134ZM280.109 10.2589C283.139 10.2589 285.797 10.785 288.102 11.8123L288.916 9.98552C286.315 8.82614 283.372 8.25892 280.109 8.25892V10.2589ZM288.102 11.8123C290.418 12.8444 292.253 14.2653 293.636 16.0676L295.223 14.8503C293.618 12.7592 291.507 11.1401 288.916 9.98552L288.102 11.8123ZM293.636 16.0676C295.01 17.8595 295.841 19.9645 296.115 22.4105L298.103 22.1874C297.791 19.4067 296.835 16.9517 295.223 14.8503L293.636 16.0676ZM297.109 21.2989H289.509V23.2989H297.109V21.2989ZM290.49 22.1065C290.194 20.5928 289.577 19.2699 288.627 18.1664L287.111 19.4714C287.814 20.2879 288.291 21.2851 288.528 22.4913L290.49 22.1065ZM288.637 18.1787C287.713 17.0689 286.495 16.2431 285.024 15.6841L284.314 17.5537C285.51 18.0081 286.426 18.6489 287.101 19.4591L288.637 18.1787ZM285.047 15.6931C283.596 15.101 281.943 14.8189 280.109 14.8189V16.8189C281.742 16.8189 283.129 17.0702 284.291 17.5448L285.047 15.6931ZM280.109 14.8189C277.986 14.8189 276.1 15.2155 274.489 16.0512L275.409 17.8267C276.678 17.169 278.233 16.8189 280.109 16.8189V14.8189ZM274.502 16.0445C272.89 16.8504 271.634 18.0271 270.76 19.5646L272.498 20.5532C273.171 19.3707 274.128 18.4675 275.396 17.8334L274.502 16.0445ZM270.76 19.5646C269.886 21.102 269.469 22.8925 269.469 24.8989H271.469C271.469 23.172 271.826 21.7359 272.498 20.5532L270.76 19.5646ZM269.469 24.8989C269.469 26.9054 269.886 28.6959 270.76 30.2332L272.498 29.2446C271.826 28.062 271.469 26.6258 271.469 24.8989H269.469ZM270.76 30.2332C271.632 31.7675 272.884 32.9546 274.489 33.7867L275.409 32.0112C274.134 31.35 273.173 30.4303 272.498 29.2446L270.76 30.2332ZM274.502 33.7934C276.11 34.5976 277.991 34.9789 280.109 34.9789V32.9789C278.228 32.9789 276.668 32.6403 275.396 32.0045L274.502 33.7934ZM280.109 34.9789C281.938 34.9789 283.585 34.7119 285.031 34.1513L284.308 32.2866C283.14 32.7393 281.747 32.9789 280.109 32.9789V34.9789ZM285.024 34.1537C286.495 33.5947 287.713 32.7689 288.637 31.6591L287.101 30.3787C286.426 31.1889 285.51 31.8298 284.314 32.2841L285.024 34.1537ZM288.627 31.6714C289.58 30.5644 290.195 29.2258 290.491 27.6878L288.527 27.3101C288.29 28.5454 287.811 29.5534 287.111 30.3664L288.627 31.6714ZM289.509 28.4989H297.109V26.4989H289.509V28.4989ZM301.338 39.8989H300.338V40.8989H301.338V39.8989ZM301.338 9.89892V8.89892H300.338V9.89892H301.338ZM308.858 9.89892H309.858V8.89892H308.858V9.89892ZM308.858 33.8589L308.25 34.6533L309.858 35.8825V33.8589H308.858ZM306.818 32.2989L306.034 31.6776L305.402 32.4751L306.21 33.0933L306.818 32.2989ZM324.578 9.89892V8.89892H324.094L323.794 9.27765L324.578 9.89892ZM332.578 9.89892L333.353 10.5305L334.682 8.89892H332.578V9.89892ZM308.138 39.8989V40.8989H308.613L308.913 40.5305L308.138 39.8989ZM315.698 25.3789L315.045 24.6209L314.406 25.1708L314.84 25.8938L315.698 25.3789ZM321.138 20.6989L321.989 20.174L321.374 19.1767L320.485 19.9408L321.138 20.6989ZM332.978 39.8989V40.8989H334.769L333.829 39.374L332.978 39.8989ZM324.418 39.8989L323.56 40.4138L323.852 40.8989H324.418V39.8989ZM302.338 39.8989V9.89892H300.338V39.8989H302.338ZM301.338 10.8989H308.858V8.89892H301.338V10.8989ZM307.858 9.89892V33.8589H309.858V9.89892H307.858ZM309.465 33.0646L307.425 31.5046L306.21 33.0933L308.25 34.6533L309.465 33.0646ZM307.601 32.9202L325.361 10.5202L323.794 9.27765L306.034 31.6776L307.601 32.9202ZM324.578 10.8989H332.578V8.89892H324.578V10.8989ZM331.802 9.26732L307.362 39.2673L308.913 40.5305L333.353 10.5305L331.802 9.26732ZM308.138 38.8989H301.338V40.8989H308.138V38.8989ZM316.35 26.137L321.79 21.457L320.485 19.9408L315.045 24.6209L316.35 26.137ZM320.286 21.2238L332.126 40.4238L333.829 39.374L321.989 20.174L320.286 21.2238ZM332.978 38.8989H324.418V40.8989H332.978V38.8989ZM325.275 39.3841L316.555 24.8641L314.84 25.8938L323.56 40.4138L325.275 39.3841ZM348.807 22.3789V21.3789H347.807V22.3789H348.807ZM370.527 22.3789H371.527V21.3789H370.527V22.3789ZM370.527 28.8189V29.8189H371.527V28.8189H370.527ZM348.807 28.8189H347.807V29.8189H348.807V28.8189ZM371.247 9.89892H372.247V8.89892H371.247V9.89892ZM371.247 16.3389V17.3389H372.247V16.3389H371.247ZM348.967 16.3389L348.26 15.6318L346.552 17.3389H348.967V16.3389ZM352.687 12.6189H353.687V10.2047L351.98 11.9118L352.687 12.6189ZM352.687 39.8989V40.8989H353.687V39.8989H352.687ZM345.127 39.8989H344.127V40.8989H345.127V39.8989ZM345.127 9.89892V8.89892H344.127V9.89892H345.127ZM348.807 23.3789H370.527V21.3789H348.807V23.3789ZM369.527 22.3789V28.8189H371.527V22.3789H369.527ZM370.527 27.8189H348.807V29.8189H370.527V27.8189ZM349.807 28.8189V22.3789H347.807V28.8189H349.807ZM370.247 9.89892V16.3389H372.247V9.89892H370.247ZM371.247 15.3389H348.967V17.3389H371.247V15.3389ZM349.674 17.046L353.394 13.326L351.98 11.9118L348.26 15.6318L349.674 17.046ZM351.687 12.6189V39.8989H353.687V12.6189H351.687ZM352.687 38.8989H345.127V40.8989H352.687V38.8989ZM346.127 39.8989V9.89892H344.127V39.8989H346.127ZM345.127 10.8989H371.247V8.89892H345.127V10.8989ZM380.874 23.0989V22.0989H379.874V23.0989H380.874ZM395.474 22.1389L396.087 22.9296L396.094 22.9236L396.102 22.9173L395.474 22.1389ZM395.474 16.6589L394.847 17.4373L394.854 17.4436L394.862 17.4496L395.474 16.6589ZM379.794 15.6589L379.056 14.9843L377.526 16.6589H379.794V15.6589ZM383.194 11.9389H384.194V9.36255L382.456 11.2643L383.194 11.9389ZM383.194 39.8989V40.8989H384.194V39.8989H383.194ZM375.634 39.8989H374.634V40.8989H375.634V39.8989ZM375.634 9.89892V8.89892H374.634V9.89892H375.634ZM398.994 11.0989L398.565 12.0018L398.994 11.0989ZM402.914 14.4189L403.749 13.8679L402.914 14.4189ZM402.914 24.2989L403.749 24.85L402.914 24.2989ZM398.994 27.6189L399.413 28.5274L399.424 28.5218L398.994 27.6189ZM380.874 28.7789H379.874V29.7789H380.874V28.7789ZM385.714 25.8589V24.8589H383.684L384.922 26.4686L385.714 25.8589ZM394.234 25.8589L395.021 25.2408L394.72 24.8589H394.234V25.8589ZM405.274 39.8989V40.8989H407.333L406.061 39.2808L405.274 39.8989ZM396.514 39.8989L395.722 40.5086L396.022 40.8989H396.514V39.8989ZM380.874 24.0989H392.114V22.0989H380.874V24.0989ZM392.114 24.0989C393.672 24.0989 395.032 23.7461 396.087 22.9296L394.862 21.3482C394.264 21.8118 393.384 22.0989 392.114 22.0989V24.0989ZM396.102 22.9173C397.191 22.0393 397.714 20.8186 397.714 19.3789H395.714C395.714 20.2859 395.411 20.9052 394.847 21.3605L396.102 22.9173ZM397.714 19.3789C397.714 17.9394 397.19 16.7225 396.087 15.8682L394.862 17.4496C395.412 17.8753 395.714 18.4718 395.714 19.3789H397.714ZM396.102 15.8805C395.047 15.0292 393.68 14.6589 392.114 14.6589V16.6589C393.375 16.6589 394.249 16.9553 394.847 17.4373L396.102 15.8805ZM392.114 14.6589H379.794V16.6589H392.114V14.6589ZM380.533 16.3336L383.933 12.6136L382.456 11.2643L379.056 14.9843L380.533 16.3336ZM382.194 11.9389V39.8989H384.194V11.9389H382.194ZM383.194 38.8989H375.634V40.8989H383.194V38.8989ZM376.634 39.8989V9.89892H374.634V39.8989H376.634ZM375.634 10.8989H393.114V8.89892H375.634V10.8989ZM393.114 10.8989C395.236 10.8989 397.043 11.2774 398.565 12.0018L399.424 10.1961C397.586 9.3204 395.473 8.89892 393.114 8.89892V10.8989ZM398.565 12.0018C400.097 12.7315 401.257 13.7233 402.08 14.97L403.749 13.8679C402.706 12.2879 401.252 11.0664 399.424 10.1961L398.565 12.0018ZM402.08 14.97C402.893 16.2009 403.314 17.6576 403.314 19.3789H405.314C405.314 17.3136 404.803 15.4636 403.749 13.8679L402.08 14.97ZM403.314 19.3789C403.314 21.0705 402.894 22.5146 402.08 23.7479L403.749 24.85C404.801 23.2566 405.314 21.4207 405.314 19.3789H403.314ZM402.08 23.7479C401.257 24.9946 400.097 25.9864 398.565 26.7161L399.424 28.5218C401.252 27.6515 402.706 26.43 403.749 24.85L402.08 23.7479ZM398.576 26.7105C397.052 27.4121 395.24 27.7789 393.114 27.7789V29.7789C395.469 29.7789 397.577 29.3724 399.413 28.5273L398.576 26.7105ZM393.114 27.7789H380.874V29.7789H393.114V27.7789ZM381.874 28.7789V23.0989H379.874V28.7789H381.874ZM385.714 26.8589H394.234V24.8589H385.714V26.8589ZM393.448 26.477L404.488 40.517L406.061 39.2808L395.021 25.2408L393.448 26.477ZM405.274 38.8989H396.514V40.8989H405.274V38.8989ZM397.307 39.2892L386.507 25.2492L384.922 26.4686L395.722 40.5086L397.307 39.2892ZM409.228 9.89892V8.89892H408.228V9.89892H409.228ZM416.788 9.89892H417.788V8.89892H416.788V9.89892ZM416.788 39.8989V40.8989H417.788V39.8989H416.788ZM409.228 39.8989H408.228V40.8989H409.228V39.8989ZM409.228 10.8989H416.788V8.89892H409.228V10.8989ZM415.788 9.89892V39.8989H417.788V9.89892H415.788ZM416.788 38.8989H409.228V40.8989H416.788V38.8989ZM410.228 39.8989V9.89892H408.228V39.8989H410.228ZM446.507 11.7789L446.078 12.6823L446.507 11.7789ZM452.667 17.0189L451.83 17.5667L451.835 17.5736L452.667 17.0189ZM452.667 32.7789L451.832 32.2288L451.83 32.2311L452.667 32.7789ZM446.507 38.0189L446.078 37.1156L446.507 38.0189ZM422.627 39.8989H421.627V40.8989H422.627V39.8989ZM422.627 9.89892V8.89892H421.627V9.89892H422.627ZM430.147 36.8189L429.447 37.5338L431.147 39.1961V36.8189H430.147ZM426.467 33.2189V32.2189H424.014L425.767 33.9338L426.467 33.2189ZM442.827 32.1789L442.386 31.2811L442.827 32.1789ZM446.107 29.2989L446.953 29.8323L446.958 29.824L446.107 29.2989ZM446.107 20.4989L445.261 21.0322L446.107 20.4989ZM442.827 17.6189L443.267 16.7211V16.7211L442.827 17.6189ZM426.467 16.5789L425.767 15.8641L424.014 17.5789H426.467V16.5789ZM430.147 12.9789H431.147V10.6017L429.447 12.2641L430.147 12.9789ZM437.267 10.8989C440.668 10.8989 443.596 11.5043 446.078 12.6823L446.936 10.8756C444.137 9.54692 440.905 8.89892 437.267 8.89892V10.8989ZM446.078 12.6823C448.568 13.8643 450.473 15.4944 451.83 17.5667L453.503 16.4711C451.927 14.0635 449.726 12.2002 446.936 10.8756L446.078 12.6823ZM451.835 17.5736C453.206 19.6302 453.907 22.0586 453.907 24.8989H455.907C455.907 21.7126 455.114 18.8877 453.499 16.4642L451.835 17.5736ZM453.907 24.8989C453.907 27.7104 453.207 30.1417 451.832 32.2288L453.502 33.3291C455.113 30.8829 455.907 28.0608 455.907 24.8989H453.907ZM451.83 32.2311C450.473 34.3035 448.568 35.9336 446.078 37.1156L446.936 38.9223C449.726 37.5976 451.927 35.7344 453.503 33.3267L451.83 32.2311ZM446.078 37.1156C443.596 38.2936 440.668 38.8989 437.267 38.8989V40.8989C440.905 40.8989 444.137 40.2509 446.936 38.9223L446.078 37.1156ZM437.267 38.8989H422.627V40.8989H437.267V38.8989ZM423.627 39.8989V9.89892H421.627V39.8989H423.627ZM422.627 10.8989H437.267V8.89892H422.627V10.8989ZM430.846 36.1041L427.166 32.5041L425.767 33.9338L429.447 37.5338L430.846 36.1041ZM426.467 34.2189H437.827V32.2189H426.467V34.2189ZM437.827 34.2189C439.866 34.2189 441.69 33.8504 443.267 33.0767L442.386 31.2811C441.137 31.8941 439.627 32.2189 437.827 32.2189V34.2189ZM443.267 33.0767C444.832 32.309 446.072 31.229 446.953 29.8322L445.261 28.7656C444.595 29.8222 443.648 30.6621 442.386 31.2811L443.267 33.0767ZM446.958 29.824C447.842 28.3916 448.267 26.7377 448.267 24.8989H446.267C446.267 26.4202 445.918 27.6996 445.256 28.7738L446.958 29.824ZM448.267 24.8989C448.267 23.0374 447.843 21.3784 446.953 19.9656L445.261 21.0322C445.917 22.0728 446.267 23.3471 446.267 24.8989H448.267ZM446.953 19.9656C446.072 18.5689 444.832 17.4888 443.267 16.7211L442.386 18.5167C443.648 19.1357 444.595 19.9756 445.261 21.0322L446.953 19.9656ZM443.267 16.7211C441.69 15.9474 439.866 15.5789 437.827 15.5789V17.5789C439.627 17.5789 441.137 17.9038 442.386 18.5167L443.267 16.7211ZM437.827 15.5789H426.467V17.5789H437.827V15.5789ZM427.166 17.2938L430.846 13.6938L429.447 12.2641L425.767 15.8641L427.166 17.2938ZM429.147 12.9789V36.8189H431.147V12.9789H429.147ZM462.909 33.8589H461.909V34.8589H462.909V33.8589ZM462.909 27.7789V26.7789H461.909V27.7789H462.909ZM483.629 27.7789H484.629V26.7789H483.629V27.7789ZM483.629 33.8589V34.8589H484.629V33.8589H483.629ZM478.349 9.89892L479.258 9.48002L478.989 8.89892H478.349V9.89892ZM492.189 39.8989V40.8989H493.752L493.098 39.48L492.189 39.8989ZM484.149 39.8989L483.235 40.3037L483.499 40.8989H484.149V39.8989ZM472.269 13.0589V12.0589H470.733L471.355 13.4637L472.269 13.0589ZM474.589 13.0589L475.504 13.4625L476.124 12.0589H474.589V13.0589ZM462.749 39.8989V40.8989H463.401L463.664 40.3025L462.749 39.8989ZM454.709 39.8989L453.801 39.48L453.147 40.8989H454.709V39.8989ZM468.549 9.89892V8.89892H467.91L467.641 9.48002L468.549 9.89892ZM463.909 33.8589V27.7789H461.909V33.8589H463.909ZM462.909 28.7789H483.629V26.7789H462.909V28.7789ZM482.629 27.7789V33.8589H484.629V27.7789H482.629ZM483.629 32.8589H462.909V34.8589H483.629V32.8589ZM477.441 10.3178L491.281 40.3178L493.098 39.48L479.258 9.48002L477.441 10.3178ZM492.189 38.8989H484.149V40.8989H492.189V38.8989ZM485.064 39.4942L473.184 12.6542L471.355 13.4637L483.235 40.3037L485.064 39.4942ZM472.269 14.0589H474.589V12.0589H472.269V14.0589ZM473.675 12.6553L461.835 39.4953L463.664 40.3025L475.504 13.4625L473.675 12.6553ZM462.749 38.8989H454.709V40.8989H462.749V38.8989ZM455.617 40.3178L469.458 10.3178L467.641 9.48002L453.801 39.48L455.617 40.3178ZM468.549 10.8989H478.349V8.89892H468.549V10.8989ZM500.436 39.8989H499.436V40.8989H500.436V39.8989ZM500.436 25.3789V24.3789H499.436V25.3789H500.436ZM507.996 25.3789H508.996V24.3789H507.996V25.3789ZM507.996 39.8989V40.8989H508.996V39.8989H507.996ZM486.356 9.89892V8.89892H484.298L485.569 10.5167L486.356 9.89892ZM494.716 9.89892L495.502 9.28071L495.201 8.89892H494.716V9.89892ZM505.916 24.1389V25.1389H507.974L506.702 23.5207L505.916 24.1389ZM502.436 24.1389L501.65 23.5207L500.377 25.1389H502.436V24.1389ZM513.636 9.89892V8.89892H513.15L512.85 9.28071L513.636 9.89892ZM521.996 9.89892L522.782 10.5173L524.055 8.89892H521.996V9.89892ZM506.636 29.4189L506.652 30.4188L507.128 30.411L507.422 30.0373L506.636 29.4189ZM501.756 29.4989L500.969 30.1167L501.276 30.5069L501.772 30.4988L501.756 29.4989ZM501.436 39.8989V25.3789H499.436V39.8989H501.436ZM500.436 26.3789H507.996V24.3789H500.436V26.3789ZM506.996 25.3789V39.8989H508.996V25.3789H506.996ZM507.996 38.8989H500.436V40.8989H507.996V38.8989ZM486.356 10.8989H494.716V8.89892H486.356V10.8989ZM493.93 10.5171L505.13 24.7571L506.702 23.5207L495.502 9.28071L493.93 10.5171ZM505.916 23.1389H502.436V25.1389H505.916V23.1389ZM503.222 24.7571L514.422 10.5171L512.85 9.28071L501.65 23.5207L503.222 24.7571ZM513.636 10.8989H521.996V8.89892H513.636V10.8989ZM521.21 9.28053L505.85 28.8005L507.422 30.0373L522.782 10.5173L521.21 9.28053ZM506.619 28.4191L501.739 28.4991L501.772 30.4988L506.652 30.4188L506.619 28.4191ZM502.542 28.8811L487.142 9.2811L485.569 10.5167L500.969 30.1167L502.542 28.8811Z" fill="#8F8FFF" mask="url(#path-3-outside-2_1_1409)"/>
</svg>
