<svg width="524" height="49" viewBox="0 0 524 49" fill="none" xmlns="http://www.w3.org/2000/svg">
<mask id="path-1-outside-1_1_1397" maskUnits="userSpaceOnUse" x="0.417664" y="7.37634" width="135" height="34" fill="black">
<rect fill="white" x="0.417664" y="7.37634" width="135" height="34"/>
<path d="M1.85766 20.0563C2.01766 17.7363 2.77766 15.7363 4.13766 14.0563C5.49766 12.3497 7.29766 11.043 9.53766 10.1363C11.8043 9.20301 14.3643 8.73634 17.2177 8.73634C19.9377 8.73634 22.311 9.14967 24.3377 9.97634C26.3643 10.803 27.951 11.963 29.0977 13.4563C30.2443 14.9497 30.8177 16.6697 30.8177 18.6163C30.8177 20.1363 30.4177 21.5497 29.6177 22.8563C28.8177 24.1363 27.551 25.4163 25.8177 26.6963C24.0843 27.9763 21.8043 29.3363 18.9777 30.7763L10.2977 35.3363L9.89766 33.3763H31.6577V39.3763H2.37766V34.0963L15.2577 26.6963C17.311 25.523 18.911 24.523 20.0577 23.6963C21.231 22.843 22.0577 22.0563 22.5377 21.3363C23.0177 20.6163 23.2577 19.843 23.2577 19.0163C23.2577 18.163 23.0177 17.403 22.5377 16.7363C22.0843 16.0697 21.391 15.5497 20.4577 15.1763C19.5243 14.803 18.351 14.6163 16.9377 14.6163C15.2577 14.6163 13.871 14.8697 12.7777 15.3763C11.6843 15.8563 10.871 16.5097 10.3377 17.3363C9.80433 18.163 9.48433 19.0697 9.37766 20.0563H1.85766ZM51.7073 40.0163C48.3207 40.0163 45.3873 39.363 42.9073 38.0563C40.4273 36.7497 38.5073 34.9363 37.1473 32.6163C35.7873 30.2697 35.1073 27.523 35.1073 24.3763C35.1073 21.2563 35.7873 18.523 37.1473 16.1763C38.5073 13.8297 40.4273 12.003 42.9073 10.6963C45.3873 9.38967 48.3207 8.73634 51.7073 8.73634C55.0673 8.73634 57.9873 9.38967 60.4673 10.6963C62.9473 12.003 64.8673 13.8297 66.2273 16.1763C67.5873 18.4963 68.2673 21.2297 68.2673 24.3763C68.2673 27.4963 67.5873 30.2297 66.2273 32.5763C64.8673 34.923 62.9473 36.7497 60.4673 38.0563C57.9873 39.363 55.0673 40.0163 51.7073 40.0163ZM51.7073 33.8563C54.5607 33.8563 56.774 33.0297 58.3473 31.3763C59.9473 29.723 60.7473 27.3897 60.7473 24.3763C60.7473 21.363 59.9473 19.0297 58.3473 17.3763C56.774 15.723 54.5607 14.8963 51.7073 14.8963C48.854 14.8963 46.6273 15.723 45.0273 17.3763C43.4273 19.0297 42.6273 21.363 42.6273 24.3763C42.6273 27.3897 43.4273 29.723 45.0273 31.3763C46.6273 33.0297 48.854 33.8563 51.7073 33.8563ZM71.467 20.0563C71.627 17.7363 72.387 15.7363 73.747 14.0563C75.107 12.3497 76.907 11.043 79.147 10.1363C81.4137 9.20301 83.9737 8.73634 86.827 8.73634C89.547 8.73634 91.9204 9.14967 93.947 9.97634C95.9737 10.803 97.5604 11.963 98.707 13.4563C99.8537 14.9497 100.427 16.6697 100.427 18.6163C100.427 20.1363 100.027 21.5497 99.227 22.8563C98.427 24.1363 97.1604 25.4163 95.427 26.6963C93.6937 27.9763 91.4137 29.3363 88.587 30.7763L79.907 35.3363L79.507 33.3763H101.267V39.3763H71.987V34.0963L84.867 26.6963C86.9204 25.523 88.5204 24.523 89.667 23.6963C90.8404 22.843 91.667 22.0563 92.147 21.3363C92.627 20.6163 92.867 19.843 92.867 19.0163C92.867 18.163 92.627 17.403 92.147 16.7363C91.6937 16.0697 91.0004 15.5497 90.067 15.1763C89.1337 14.803 87.9604 14.6163 86.547 14.6163C84.867 14.6163 83.4804 14.8697 82.387 15.3763C81.2937 15.8563 80.4804 16.5097 79.947 17.3363C79.4137 18.163 79.0937 19.0697 78.987 20.0563H71.467ZM104.957 18.9763C105.09 17.083 105.757 15.363 106.957 13.8163C108.157 12.2697 109.863 11.043 112.077 10.1363C114.317 9.20301 117.01 8.73634 120.157 8.73634C122.903 8.73634 125.277 9.09634 127.277 9.81634C129.303 10.5097 130.877 11.483 131.997 12.7363C133.117 13.963 133.677 15.4163 133.677 17.0963C133.677 18.4563 133.263 19.6963 132.437 20.8163C131.637 21.9097 130.37 22.7897 128.637 23.4563C126.903 24.0963 124.69 24.403 121.997 24.3763V23.5763C124.557 23.443 126.757 23.6297 128.597 24.1363C130.437 24.643 131.85 25.443 132.837 26.5363C133.823 27.6297 134.317 29.003 134.317 30.6563C134.317 32.4697 133.743 34.083 132.597 35.4963C131.45 36.883 129.77 37.9897 127.557 38.8163C125.37 39.6163 122.703 40.0163 119.557 40.0163C116.49 40.0163 113.81 39.5897 111.517 38.7363C109.25 37.8563 107.477 36.643 106.197 35.0963C104.943 33.523 104.263 31.683 104.157 29.5763H111.677C111.89 31.043 112.637 32.1763 113.917 32.9763C115.223 33.7497 117.103 34.1363 119.557 34.1363C121.877 34.1363 123.637 33.7897 124.837 33.0963C126.063 32.3763 126.677 31.3763 126.677 30.0963C126.677 29.3497 126.477 28.7363 126.077 28.2563C125.677 27.7497 124.997 27.363 124.037 27.0963C123.077 26.8297 121.743 26.6963 120.037 26.6963H114.837V21.5363H120.037C122.25 21.5363 123.81 21.2297 124.717 20.6163C125.623 19.9763 126.077 19.1497 126.077 18.1363C126.077 17.0163 125.543 16.1497 124.477 15.5363C123.437 14.923 121.863 14.6163 119.757 14.6163C117.57 14.6163 115.863 14.9897 114.637 15.7363C113.437 16.483 112.717 17.563 112.477 18.9763H104.957Z"/>
</mask>
<path d="M1.85766 20.0563L0.860033 19.9875L0.786323 21.0563H1.85766V20.0563ZM4.13766 14.0563L4.91493 14.6856L4.91972 14.6795L4.13766 14.0563ZM9.53766 10.1363L9.91286 11.0633L9.91841 11.061L9.53766 10.1363ZM24.3377 9.97634L23.96 10.9023L24.3377 9.97634ZM29.0977 13.4563L28.3045 14.0654V14.0654L29.0977 13.4563ZM29.6177 22.8563L30.4657 23.3864L30.4705 23.3785L29.6177 22.8563ZM25.8177 26.6963L26.4117 27.5008L25.8177 26.6963ZM18.9777 30.7763L18.5237 29.8852L18.5126 29.8911L18.9777 30.7763ZM10.2977 35.3363L9.31786 35.5363L9.58409 36.8408L10.7627 36.2216L10.2977 35.3363ZM9.89766 33.3763V32.3763H8.67297L8.91786 33.5763L9.89766 33.3763ZM31.6577 33.3763H32.6577V32.3763H31.6577V33.3763ZM31.6577 39.3763V40.3763H32.6577V39.3763H31.6577ZM2.37766 39.3763H1.37766V40.3763H2.37766V39.3763ZM2.37766 34.0963L1.8795 33.2293L1.37766 33.5176V34.0963H2.37766ZM15.2577 26.6963L14.7615 25.8281L14.7595 25.8293L15.2577 26.6963ZM20.0577 23.6963L20.6425 24.5075L20.6458 24.5051L20.0577 23.6963ZM22.5377 21.3363L21.7056 20.7816L22.5377 21.3363ZM22.5377 16.7363L21.7107 17.2987L21.7183 17.3098L21.7261 17.3206L22.5377 16.7363ZM20.4577 15.1763L20.8291 14.2479L20.4577 15.1763ZM12.7777 15.3763L13.1797 16.292L13.1889 16.2879L13.1981 16.2837L12.7777 15.3763ZM10.3377 17.3363L11.178 17.8785L10.3377 17.3363ZM9.37766 20.0563V21.0563H10.2754L10.3719 20.1638L9.37766 20.0563ZM2.85529 20.1251C3.00229 17.9938 3.69417 16.1935 4.91491 14.6855L3.36042 13.4271C1.86116 15.2792 1.03304 17.4789 0.860033 19.9875L2.85529 20.1251ZM4.91972 14.6795C6.1613 13.1215 7.81483 11.9125 9.91286 11.0633L9.16247 9.20939C6.78049 10.1735 4.83403 11.5779 3.3556 13.4331L4.91972 14.6795ZM9.91841 11.061C12.0462 10.1849 14.4738 9.73634 17.2177 9.73634V7.73634C14.2549 7.73634 11.5625 8.22113 9.15691 9.21166L9.91841 11.061ZM17.2177 9.73634C19.8385 9.73634 22.0785 10.1348 23.96 10.9023L24.7153 9.05041C22.5435 8.16453 20.0368 7.73634 17.2177 7.73634V9.73634ZM23.96 10.9023C25.8495 11.673 27.2823 12.7341 28.3045 14.0654L29.8908 12.8473C28.6197 11.1919 26.8792 9.93301 24.7153 9.05041L23.96 10.9023ZM28.3045 14.0654C29.3122 15.3777 29.8177 16.8819 29.8177 18.6163H31.8177C31.8177 16.4575 31.1764 14.5216 29.8908 12.8473L28.3045 14.0654ZM29.8177 18.6163C29.8177 19.9505 29.4694 21.1834 28.7648 22.3342L30.4705 23.3785C31.3659 21.916 31.8177 20.3222 31.8177 18.6163H29.8177ZM28.7697 22.3263C28.0583 23.4646 26.8956 24.6572 25.2236 25.8919L26.4117 27.5008C28.2064 26.1755 29.577 24.8081 30.4657 23.3863L28.7697 22.3263ZM25.2236 25.8919C23.5499 27.1279 21.322 28.4598 18.5237 29.8853L19.4316 31.6674C22.2867 30.2129 24.6188 28.8248 26.4117 27.5008L25.2236 25.8919ZM18.5126 29.8911L9.83259 34.4511L10.7627 36.2216L19.4427 31.6616L18.5126 29.8911ZM11.2775 35.1364L10.8775 33.1764L8.91786 33.5763L9.31786 35.5363L11.2775 35.1364ZM9.89766 34.3763H31.6577V32.3763H9.89766V34.3763ZM30.6577 33.3763V39.3763H32.6577V33.3763H30.6577ZM31.6577 38.3763H2.37766V40.3763H31.6577V38.3763ZM3.37766 39.3763V34.0963H1.37766V39.3763H3.37766ZM2.87583 34.9634L15.7558 27.5634L14.7595 25.8293L1.8795 33.2293L2.87583 34.9634ZM15.7538 27.5646C17.8203 26.3837 19.4547 25.3638 20.6425 24.5075L19.4729 22.8852C18.3673 23.6822 16.8017 24.6623 14.7615 25.8281L15.7538 27.5646ZM20.6458 24.5051C21.8591 23.6227 22.7944 22.754 23.3697 21.891L21.7056 20.7816C21.3209 21.3587 20.6029 22.0633 19.4695 22.8876L20.6458 24.5051ZM23.3697 21.891C23.9538 21.0149 24.2577 20.05 24.2577 19.0163H22.2577C22.2577 19.6361 22.0815 20.2178 21.7056 20.7816L23.3697 21.891ZM24.2577 19.0163C24.2577 17.962 23.9567 16.9958 23.3492 16.152L21.7261 17.3206C22.0786 17.8102 22.2577 18.364 22.2577 19.0163H24.2577ZM23.3646 16.174C22.7744 15.3061 21.9015 14.6768 20.8291 14.2479L20.0863 16.1048C20.8805 16.4225 21.3943 16.8332 21.7107 17.2987L23.3646 16.174ZM20.8291 14.2479C19.7401 13.8123 18.4304 13.6163 16.9377 13.6163V15.6163C18.2716 15.6163 19.3086 15.7937 20.0863 16.1048L20.8291 14.2479ZM16.9377 13.6163C15.166 13.6163 13.6235 13.8822 12.3572 14.469L13.1981 16.2837C14.1185 15.8572 15.3493 15.6163 16.9377 15.6163V13.6163ZM12.3757 14.4607C11.1416 15.0025 10.1579 15.7704 9.49737 16.7942L11.178 17.8785C11.5841 17.2489 12.2271 16.7102 13.1797 16.292L12.3757 14.4607ZM9.49737 16.7942C8.87881 17.753 8.50672 18.8087 8.38346 19.9489L10.3719 20.1638C10.4619 19.3306 10.7299 18.573 11.178 17.8785L9.49737 16.7942ZM9.37766 19.0563H1.85766V21.0563H9.37766V19.0563ZM42.9073 38.0563L42.4412 38.9411L42.9073 38.0563ZM37.1473 32.6163L36.2821 33.1178L36.2847 33.1221L37.1473 32.6163ZM37.1473 16.1763L36.2821 15.6749L37.1473 16.1763ZM42.9073 10.6963L43.3735 11.5811V11.5811L42.9073 10.6963ZM60.4674 10.6963L60.0012 11.5811V11.5811L60.4674 10.6963ZM66.2274 16.1763L65.3621 16.6778L65.3647 16.6821L66.2274 16.1763ZM66.2274 32.5763L67.0925 33.0778L66.2274 32.5763ZM60.4674 38.0563L60.9335 38.9411L60.4674 38.0563ZM58.3473 31.3763L57.6287 30.6809L57.6229 30.687L58.3473 31.3763ZM58.3473 17.3763L57.6229 18.0657L57.6287 18.0718L58.3473 17.3763ZM45.0273 17.3763L45.7459 18.0718L45.0273 17.3763ZM45.0273 31.3763L44.3087 32.0718L45.0273 31.3763ZM51.7073 39.0163C48.4496 39.0163 45.6828 38.3884 43.3735 37.1716L42.4412 38.9411C45.0919 40.3377 48.1918 41.0163 51.7073 41.0163V39.0163ZM43.3735 37.1716C41.0511 35.948 39.2717 34.2628 38.01 32.1106L36.2847 33.1221C37.743 35.6099 39.8036 37.5514 42.4412 38.9411L43.3735 37.1716ZM38.0126 32.1149C36.7541 29.9435 36.1073 27.3754 36.1073 24.3763H34.1073C34.1073 27.6706 34.8206 30.5958 36.2821 33.1178L38.0126 32.1149ZM36.1073 24.3763C36.1073 21.4056 36.7534 18.8504 38.0126 16.6778L36.2821 15.6749C34.8213 18.1956 34.1073 21.1071 34.1073 24.3763H36.1073ZM38.0126 16.6778C39.275 14.4995 41.054 12.8031 43.3735 11.5811L42.4412 9.81163C39.8007 11.2029 37.7397 13.1598 36.2821 15.6749L38.0126 16.6778ZM43.3735 11.5811C45.6828 10.3643 48.4496 9.73634 51.7073 9.73634V7.73634C48.1918 7.73634 45.0919 8.41503 42.4412 9.81163L43.3735 11.5811ZM51.7073 9.73634C54.937 9.73634 57.6908 10.3638 60.0012 11.5811L60.9335 9.81163C58.2839 8.41559 55.1977 7.73634 51.7073 7.73634V9.73634ZM60.0012 11.5811C62.3207 12.8031 64.0997 14.4995 65.3621 16.6778L67.0925 15.6749C65.635 13.1598 63.574 11.2029 60.9335 9.81163L60.0012 11.5811ZM65.3647 16.6821C66.6205 18.8243 67.2673 21.3769 67.2673 24.3763H69.2673C69.2673 21.0824 68.5542 18.1684 67.09 15.6706L65.3647 16.6821ZM67.2673 24.3763C67.2673 27.3471 66.6213 29.9023 65.3621 32.0749L67.0925 33.0778C68.5534 30.5571 69.2673 27.6456 69.2673 24.3763H67.2673ZM65.3621 32.0749C64.0997 34.2532 62.3207 35.9496 60.0012 37.1716L60.9335 38.9411C63.574 37.5498 65.635 35.5928 67.0925 33.0778L65.3621 32.0749ZM60.0012 37.1716C57.6908 38.3889 54.937 39.0163 51.7073 39.0163V41.0163C55.1977 41.0163 58.2839 40.3371 60.9335 38.9411L60.0012 37.1716ZM51.7073 34.8563C54.7616 34.8563 57.2647 33.9647 59.0718 32.0657L57.6229 30.687C56.2833 32.0947 54.3598 32.8563 51.7073 32.8563V34.8563ZM59.0659 32.0718C60.897 30.1797 61.7473 27.5661 61.7473 24.3763H59.7473C59.7473 27.2133 58.9977 29.2663 57.6287 30.6809L59.0659 32.0718ZM61.7473 24.3763C61.7473 21.1866 60.897 18.573 59.0659 16.6809L57.6287 18.0718C58.9977 19.4863 59.7473 21.5394 59.7473 24.3763H61.7473ZM59.0718 16.687C57.2647 14.788 54.7616 13.8963 51.7073 13.8963V15.8963C54.3598 15.8963 56.2833 16.658 57.6229 18.0657L59.0718 16.687ZM51.7073 13.8963C48.6524 13.8963 46.1404 14.7882 44.3087 16.6809L45.7459 18.0718C47.1143 16.6578 49.0557 15.8963 51.7073 15.8963V13.8963ZM44.3087 16.6809C42.4777 18.573 41.6273 21.1866 41.6273 24.3763H43.6273C43.6273 21.5394 44.377 19.4863 45.7459 18.0718L44.3087 16.6809ZM41.6273 24.3763C41.6273 27.5661 42.4777 30.1797 44.3087 32.0718L45.7459 30.6809C44.377 29.2663 43.6273 27.2133 43.6273 24.3763H41.6273ZM44.3087 32.0718C46.1404 33.9645 48.6524 34.8563 51.7073 34.8563V32.8563C49.0557 32.8563 47.1143 32.0949 45.7459 30.6809L44.3087 32.0718ZM71.467 20.0563L70.4694 19.9875L70.3957 21.0563H71.467V20.0563ZM73.747 14.0563L74.5243 14.6856L74.5291 14.6795L73.747 14.0563ZM79.147 10.1363L79.5222 11.0633L79.5278 11.061L79.147 10.1363ZM93.947 9.97634L93.5694 10.9023L93.947 9.97634ZM98.707 13.4563L97.9139 14.0654V14.0654L98.707 13.4563ZM99.227 22.8563L100.075 23.3864L100.08 23.3785L99.227 22.8563ZM95.427 26.6963L96.0211 27.5008L95.427 26.6963ZM88.587 30.7763L88.1331 29.8852L88.122 29.8911L88.587 30.7763ZM79.907 35.3363L78.9272 35.5363L79.1935 36.8408L80.3721 36.2216L79.907 35.3363ZM79.507 33.3763V32.3763H78.2823L78.5272 33.5763L79.507 33.3763ZM101.267 33.3763H102.267V32.3763H101.267V33.3763ZM101.267 39.3763V40.3763H102.267V39.3763H101.267ZM71.987 39.3763H70.987V40.3763H71.987V39.3763ZM71.987 34.0963L71.4889 33.2293L70.987 33.5176V34.0963H71.987ZM84.867 26.6963L84.3709 25.8281L84.3689 25.8293L84.867 26.6963ZM89.667 23.6963L90.2518 24.5075L90.2552 24.5051L89.667 23.6963ZM92.147 21.3363L91.315 20.7816L92.147 21.3363ZM92.147 16.7363L91.3201 17.2987L91.3277 17.3098L91.3355 17.3206L92.147 16.7363ZM90.067 15.1763L90.4384 14.2479L90.067 15.1763ZM82.387 15.3763L82.789 16.292L82.7983 16.2879L82.8075 16.2837L82.387 15.3763ZM79.947 17.3363L80.7873 17.8785L79.947 17.3363ZM78.987 20.0563V21.0563H79.8848L79.9812 20.1638L78.987 20.0563ZM72.4647 20.1251C72.6117 17.9938 73.3035 16.1935 74.5243 14.6855L72.9698 13.4271C71.4705 15.2792 70.6424 17.4789 70.4694 19.9875L72.4647 20.1251ZM74.5291 14.6795C75.7707 13.1215 77.4242 11.9125 79.5222 11.0633L78.7718 9.20939C76.3899 10.1735 74.4434 11.5779 72.965 13.4331L74.5291 14.6795ZM79.5278 11.061C81.6555 10.1849 84.0832 9.73634 86.827 9.73634V7.73634C83.8642 7.73634 81.1719 8.22113 78.7663 9.21166L79.5278 11.061ZM86.827 9.73634C89.4479 9.73634 91.6878 10.1348 93.5694 10.9023L94.3247 9.05041C92.1529 8.16453 89.6462 7.73634 86.827 7.73634V9.73634ZM93.5694 10.9023C95.4589 11.673 96.8916 12.7341 97.9139 14.0654L99.5002 12.8473C98.2291 11.1919 96.4885 9.93301 94.3247 9.05041L93.5694 10.9023ZM97.9139 14.0654C98.9216 15.3777 99.427 16.8819 99.427 18.6163H101.427C101.427 16.4575 100.786 14.5216 99.5002 12.8473L97.9139 14.0654ZM99.427 18.6163C99.427 19.9505 99.0788 21.1834 98.3742 22.3342L100.08 23.3785C100.975 21.916 101.427 20.3222 101.427 18.6163H99.427ZM98.379 22.3263C97.6677 23.4646 96.505 24.6572 94.833 25.8919L96.0211 27.5008C97.8158 26.1755 99.1864 24.8081 100.075 23.3863L98.379 22.3263ZM94.833 25.8919C93.1593 27.1279 90.9314 28.4598 88.1331 29.8853L89.041 31.6674C91.896 30.2129 94.2281 28.8248 96.0211 27.5008L94.833 25.8919ZM88.122 29.8911L79.442 34.4511L80.3721 36.2216L89.0521 31.6616L88.122 29.8911ZM80.8868 35.1364L80.4868 33.1764L78.5272 33.5763L78.9272 35.5363L80.8868 35.1364ZM79.507 34.3763H101.267V32.3763H79.507V34.3763ZM100.267 33.3763V39.3763H102.267V33.3763H100.267ZM101.267 38.3763H71.987V40.3763H101.267V38.3763ZM72.987 39.3763V34.0963H70.987V39.3763H72.987ZM72.4852 34.9634L85.3652 27.5634L84.3689 25.8293L71.4889 33.2293L72.4852 34.9634ZM85.3632 27.5646C87.4297 26.3837 89.0641 25.3638 90.2518 24.5075L89.0822 22.8852C87.9767 23.6822 86.411 24.6623 84.3709 25.8281L85.3632 27.5646ZM90.2552 24.5051C91.4685 23.6227 92.4038 22.754 92.9791 21.891L91.315 20.7816C90.9303 21.3587 90.2122 22.0633 89.0789 22.8876L90.2552 24.5051ZM92.9791 21.891C93.5632 21.0149 93.867 20.05 93.867 19.0163H91.867C91.867 19.6361 91.6909 20.2178 91.315 20.7816L92.9791 21.891ZM93.867 19.0163C93.867 17.962 93.5661 16.9958 92.9586 16.152L91.3355 17.3206C91.688 17.8102 91.867 18.364 91.867 19.0163H93.867ZM92.974 16.174C92.3838 15.3061 91.5109 14.6768 90.4384 14.2479L89.6956 16.1048C90.4899 16.4225 91.0036 16.8332 91.3201 17.2987L92.974 16.174ZM90.4384 14.2479C89.3495 13.8123 88.0398 13.6163 86.547 13.6163V15.6163C87.881 15.6163 88.9179 15.7937 89.6956 16.1048L90.4384 14.2479ZM86.547 13.6163C84.7754 13.6163 83.2329 13.8822 81.9666 14.469L82.8075 16.2837C83.7278 15.8572 84.9587 15.6163 86.547 15.6163V13.6163ZM81.985 14.4607C80.7509 15.0025 79.7672 15.7704 79.1067 16.7942L80.7873 17.8785C81.1935 17.2489 81.8365 16.7102 82.789 16.292L81.985 14.4607ZM79.1067 16.7942C78.4882 17.753 78.1161 18.8087 77.9928 19.9489L79.9812 20.1638C80.0713 19.3306 80.3392 18.573 80.7873 17.8785L79.1067 16.7942ZM78.987 19.0563H71.467V21.0563H78.987V19.0563ZM104.957 18.9763L103.959 18.9061L103.884 19.9763H104.957V18.9763ZM106.957 13.8163L106.167 13.2033L106.957 13.8163ZM112.077 10.1363L112.456 11.0617L112.461 11.0594L112.077 10.1363ZM127.277 9.81634L126.938 10.7572L126.945 10.7599L126.953 10.7625L127.277 9.81634ZM131.997 12.7363L131.251 13.4027L131.258 13.4106L131.997 12.7363ZM132.437 20.8163L131.632 20.2225L131.63 20.2258L132.437 20.8163ZM128.637 23.4563L128.983 24.3945L128.996 24.3897L128.637 23.4563ZM121.997 24.3763H120.997V25.3665L121.987 25.3763L121.997 24.3763ZM121.997 23.5763L121.945 22.5777L120.997 22.6271V23.5763H121.997ZM132.597 35.4963L133.367 36.1336L133.373 36.1264L132.597 35.4963ZM127.557 38.8163L127.9 39.7555L127.907 39.7531L127.557 38.8163ZM111.517 38.7363L111.155 39.6686L111.168 39.6736L111.517 38.7363ZM106.197 35.0963L105.415 35.7194L105.42 35.7267L105.426 35.7339L106.197 35.0963ZM104.157 29.5763V28.5763H103.105L103.158 29.6269L104.157 29.5763ZM111.677 29.5763L112.666 29.4324L112.542 28.5763H111.677V29.5763ZM113.917 32.9763L113.387 33.8243L113.397 33.8308L113.407 33.8369L113.917 32.9763ZM124.837 33.0963L125.337 33.9622L125.343 33.9588L124.837 33.0963ZM126.077 28.2563L125.292 28.876L125.3 28.8864L125.308 28.8965L126.077 28.2563ZM124.037 27.0963L123.769 28.0599L124.037 27.0963ZM114.837 26.6963H113.837V27.6963H114.837V26.6963ZM114.837 21.5363V20.5363H113.837V21.5363H114.837ZM124.717 20.6163L125.277 21.4446L125.285 21.439L125.293 21.4333L124.717 20.6163ZM124.477 15.5363L123.969 16.3978L123.978 16.4032L124.477 15.5363ZM114.637 15.7363L114.117 14.8821L114.108 14.8873L114.637 15.7363ZM112.477 18.9763V19.9763H113.321L113.463 19.1438L112.477 18.9763ZM105.954 19.0466C106.073 17.3572 106.664 15.8248 107.747 14.4293L106.167 13.2033C104.849 14.9012 104.107 16.8088 103.959 18.9061L105.954 19.0466ZM107.747 14.4293C108.818 13.0486 110.369 11.9167 112.456 11.0617L111.698 9.21097C109.358 10.1693 107.495 11.4907 106.167 13.2033L107.747 14.4293ZM112.461 11.0594C114.549 10.1895 117.105 9.73634 120.157 9.73634V7.73634C116.915 7.73634 114.084 8.21652 111.692 9.21326L112.461 11.0594ZM120.157 9.73634C122.82 9.73634 125.073 10.0859 126.938 10.7572L127.615 8.87545C125.48 8.1068 122.987 7.73634 120.157 7.73634V9.73634ZM126.953 10.7625C128.861 11.4152 130.273 12.3077 131.251 13.4027L132.742 12.07C131.481 10.6583 129.746 9.60412 127.6 8.87018L126.953 10.7625ZM131.258 13.4106C132.208 14.4507 132.677 15.6627 132.677 17.0963H134.677C134.677 15.17 134.026 13.4753 132.735 12.0621L131.258 13.4106ZM132.677 17.0963C132.677 18.2372 132.335 19.2701 131.632 20.2225L133.241 21.4102C134.192 20.1226 134.677 18.6754 134.677 17.0963H132.677ZM131.63 20.2258C130.978 21.1168 129.896 21.9005 128.278 22.523L128.996 24.3897C130.844 23.6788 132.296 22.7026 133.244 21.4069L131.63 20.2258ZM128.29 22.5182C126.71 23.1016 124.629 23.4024 122.007 23.3764L121.987 25.3763C124.751 25.4037 127.096 25.0911 128.983 24.3944L128.29 22.5182ZM122.997 24.3763V23.5763H120.997V24.3763H122.997ZM122.049 24.575C124.536 24.4454 126.623 24.6301 128.331 25.1005L128.862 23.1722C126.89 22.6292 124.577 22.4406 121.945 22.5777L122.049 24.575ZM128.331 25.1005C130.041 25.5713 131.268 26.2907 132.094 27.2063L133.579 25.8664C132.432 24.5953 130.832 23.7147 128.862 23.1722L128.331 25.1005ZM132.094 27.2063C132.895 28.093 133.317 29.2179 133.317 30.6563H135.317C135.317 28.7881 134.752 27.1663 133.579 25.8664L132.094 27.2063ZM133.317 30.6563C133.317 32.2393 132.823 33.6304 131.82 34.8663L133.373 36.1264C134.664 34.5356 135.317 32.7 135.317 30.6563H133.317ZM131.826 34.8591C130.821 36.0749 129.306 37.0955 127.207 37.8795L127.907 39.7531C130.234 38.8838 132.079 37.6911 133.367 36.1336L131.826 34.8591ZM127.213 37.8772C125.168 38.6256 122.625 39.0163 119.557 39.0163V41.0163C122.782 41.0163 125.572 40.6071 127.9 39.7555L127.213 37.8772ZM119.557 39.0163C116.58 39.0163 114.023 38.6019 111.865 37.7991L111.168 39.6736C113.597 40.5774 116.4 41.0163 119.557 41.0163V39.0163ZM111.879 37.8041C109.738 36.9729 108.118 35.8489 106.967 34.4588L105.426 35.7339C106.836 37.4371 108.762 38.7398 111.155 39.6686L111.879 37.8041ZM106.979 34.4733C105.862 33.0717 105.252 31.4345 105.155 29.5258L103.158 29.6269C103.275 31.9316 104.024 33.9743 105.415 35.7194L106.979 34.4733ZM104.157 30.5763H111.677V28.5763H104.157V30.5763ZM110.687 29.7203C110.944 31.4839 111.863 32.8719 113.387 33.8243L114.447 32.1283C113.411 31.4808 112.836 30.6021 112.666 29.4324L110.687 29.7203ZM113.407 33.8369C114.936 34.7415 117.024 35.1363 119.557 35.1363V33.1363C117.183 33.1363 115.511 32.7579 114.426 32.1158L113.407 33.8369ZM119.557 35.1363C121.948 35.1363 123.914 34.7841 125.337 33.9622L124.336 32.2305C123.359 32.7952 121.806 33.1363 119.557 33.1363V35.1363ZM125.343 33.9588C126.834 33.0833 127.677 31.7761 127.677 30.0963H125.677C125.677 30.9765 125.292 31.6694 124.331 32.2339L125.343 33.9588ZM127.677 30.0963C127.677 29.1633 127.423 28.3093 126.845 27.6162L125.308 28.8965C125.531 29.1633 125.677 29.536 125.677 30.0963H127.677ZM126.862 27.6367C126.276 26.8949 125.365 26.4274 124.304 26.1328L123.769 28.0599C124.629 28.2986 125.077 28.6044 125.292 28.876L126.862 27.6367ZM124.304 26.1328C123.217 25.8307 121.779 25.6963 120.037 25.6963V27.6963C121.707 27.6963 122.937 27.8286 123.769 28.0599L124.304 26.1328ZM120.037 25.6963H114.837V27.6963H120.037V25.6963ZM115.837 26.6963V21.5363H113.837V26.6963H115.837ZM114.837 22.5363H120.037V20.5363H114.837V22.5363ZM120.037 22.5363C122.282 22.5363 124.106 22.2368 125.277 21.4446L124.156 19.7881C123.514 20.2225 122.218 20.5363 120.037 20.5363V22.5363ZM125.293 21.4333C126.436 20.6268 127.077 19.5091 127.077 18.1363H125.077C125.077 18.7902 124.811 19.3259 124.14 19.7994L125.293 21.4333ZM127.077 18.1363C127.077 16.6176 126.315 15.4398 124.975 14.6694L123.978 16.4032C124.772 16.8595 125.077 17.4151 125.077 18.1363H127.077ZM124.985 14.675C123.715 13.9261 121.926 13.6163 119.757 13.6163V15.6163C121.801 15.6163 123.159 15.92 123.969 16.3977L124.985 14.675ZM119.757 13.6163C117.475 13.6163 115.562 14.0027 114.117 14.8821L115.157 16.5905C116.165 15.9767 117.665 15.6163 119.757 15.6163V13.6163ZM114.108 14.8873C112.661 15.7877 111.778 17.118 111.491 18.8089L113.463 19.1438C113.655 18.008 114.212 17.1784 115.165 16.5854L114.108 14.8873ZM112.477 17.9763H104.957V19.9763H112.477V17.9763Z" fill="#FFEB1C" mask="url(#path-1-outside-1_1_1397)"/>
<mask id="path-3-outside-2_1_1397" maskUnits="userSpaceOnUse" x="160.418" y="7.37634" width="364" height="34" fill="black">
<rect fill="white" x="160.418" y="7.37634" width="364" height="34"/>
<path d="M183.138 24.6563L183.778 23.1763C186.124 23.2297 188.044 23.5897 189.538 24.2563C191.058 24.923 192.178 25.843 192.898 27.0163C193.644 28.163 194.018 29.4963 194.018 31.0163C194.018 32.6163 193.644 34.0563 192.898 35.3363C192.151 36.5897 191.031 37.5763 189.538 38.2963C188.071 39.0163 186.231 39.3763 184.018 39.3763H162.418L164.738 23.9763L162.418 9.37634H183.258C186.031 9.37634 188.178 10.0297 189.698 11.3363C191.244 12.6163 192.018 14.3897 192.018 16.6563C192.018 17.9097 191.724 19.1097 191.138 20.2563C190.551 21.403 189.618 22.3763 188.338 23.1763C187.058 23.9497 185.324 24.443 183.138 24.6563ZM169.858 37.5363L166.978 33.9763H182.218C183.524 33.9763 184.538 33.6697 185.258 33.0563C186.004 32.4163 186.378 31.523 186.378 30.3763C186.378 29.2297 185.964 28.323 185.138 27.6563C184.338 26.963 183.138 26.6163 181.538 26.6163H169.058V21.3363H180.578C181.671 21.3363 182.578 21.0297 183.298 20.4163C184.018 19.7763 184.378 18.9097 184.378 17.8163C184.378 16.9363 184.071 16.2163 183.458 15.6563C182.844 15.0697 181.951 14.7763 180.778 14.7763H167.018L169.858 11.2163L171.978 23.9763L169.858 37.5363ZM205.859 9.37634V36.0163L202.459 32.6963H224.939V39.3763H198.299V9.37634H205.859ZM233.972 33.3363V27.2563H254.692V33.3363H233.972ZM249.412 9.37634L263.252 39.3763H255.212L243.332 12.5363H245.652L233.812 39.3763H225.772L239.612 9.37634H249.412ZM297.469 26.9763C297.175 29.563 296.282 31.843 294.789 33.8163C293.295 35.763 291.322 37.283 288.869 38.3763C286.415 39.4697 283.615 40.0163 280.469 40.0163C277.029 40.0163 274.002 39.363 271.389 38.0563C268.802 36.7497 266.789 34.923 265.349 32.5763C263.909 30.2297 263.189 27.4963 263.189 24.3763C263.189 21.2563 263.909 18.523 265.349 16.1763C266.789 13.8297 268.802 12.003 271.389 10.6963C274.002 9.38967 277.029 8.73634 280.469 8.73634C283.615 8.73634 286.415 9.28301 288.869 10.3763C291.322 11.4697 293.295 12.9897 294.789 14.9363C296.282 16.883 297.175 19.163 297.469 21.7763H289.869C289.602 20.4163 289.055 19.2563 288.229 18.2963C287.429 17.3363 286.362 16.603 285.029 16.0963C283.722 15.563 282.202 15.2963 280.469 15.2963C278.469 15.2963 276.749 15.6697 275.309 16.4163C273.869 17.1363 272.762 18.1763 271.989 19.5363C271.215 20.8963 270.829 22.5097 270.829 24.3763C270.829 26.243 271.215 27.8563 271.989 29.2163C272.762 30.5763 273.869 31.6297 275.309 32.3763C276.749 33.0963 278.469 33.4563 280.469 33.4563C282.202 33.4563 283.722 33.203 285.029 32.6963C286.362 32.1897 287.429 31.4563 288.229 30.4963C289.055 29.5363 289.602 28.363 289.869 26.9763H297.469ZM301.697 39.3763V9.37634H309.217V33.3363L307.177 31.7763L324.937 9.37634H332.937L308.497 39.3763H301.697ZM316.057 24.8563L321.497 20.1763L333.337 39.3763H324.777L316.057 24.8563ZM349.166 21.8563H370.886V28.2963H349.166V21.8563ZM371.606 9.37634V15.8163H349.326L353.046 12.0963V39.3763H345.486V9.37634H371.606ZM381.234 22.5763H392.474C393.887 22.5763 395.007 22.2563 395.834 21.6163C396.661 20.9497 397.074 20.0297 397.074 18.8563C397.074 17.683 396.661 16.7763 395.834 16.1363C395.007 15.4697 393.887 15.1363 392.474 15.1363H380.154L383.554 11.4163V39.3763H375.994V9.37634H393.474C395.714 9.37634 397.674 9.77634 399.354 10.5763C401.034 11.3763 402.341 12.483 403.274 13.8963C404.207 15.3097 404.674 16.963 404.674 18.8563C404.674 20.723 404.207 22.363 403.274 23.7763C402.341 25.1897 401.034 26.2963 399.354 27.0963C397.674 27.8697 395.714 28.2563 393.474 28.2563H381.234V22.5763ZM386.074 25.3363H394.594L405.634 39.3763H396.874L386.074 25.3363ZM409.588 9.37634H417.148V39.3763H409.588V9.37634ZM437.626 9.37634C441.146 9.37634 444.226 10.003 446.866 11.2563C449.506 12.5097 451.559 14.2563 453.026 16.4963C454.519 18.7363 455.266 21.363 455.266 24.3763C455.266 27.363 454.519 29.9897 453.026 32.2563C451.559 34.4963 449.506 36.243 446.866 37.4963C444.226 38.7497 441.146 39.3763 437.626 39.3763H422.986V9.37634H437.626ZM430.506 36.2963L426.826 32.6963H438.186C440.106 32.6963 441.773 32.3497 443.186 31.6563C444.599 30.963 445.693 30.003 446.466 28.7763C447.239 27.523 447.626 26.0563 447.626 24.3763C447.626 22.6697 447.239 21.203 446.466 19.9763C445.693 18.7497 444.599 17.7897 443.186 17.0963C441.773 16.403 440.106 16.0563 438.186 16.0563H426.826L430.506 12.4563V36.2963ZM463.269 33.3363V27.2563H483.989V33.3363H463.269ZM478.709 9.37634L492.549 39.3763H484.509L472.629 12.5363H474.949L463.109 39.3763H455.069L468.909 9.37634H478.709ZM500.795 39.3763V24.8563H508.355V39.3763H500.795ZM486.715 9.37634H495.075L506.275 23.6163H502.795L513.995 9.37634H522.355L506.995 28.8963L502.115 28.9763L486.715 9.37634Z"/>
</mask>
<path d="M183.138 24.6563L182.22 24.2594L181.547 25.8163L183.235 25.6516L183.138 24.6563ZM183.778 23.1763L183.8 22.1766L183.127 22.1613L182.86 22.7794L183.778 23.1763ZM189.538 24.2563L189.13 25.1695L189.136 25.1721L189.538 24.2563ZM192.898 27.0163L192.045 27.5394L192.052 27.5508L192.06 27.562L192.898 27.0163ZM192.898 35.3363L193.757 35.8482L193.761 35.8402L192.898 35.3363ZM189.538 38.2963L189.103 37.3955L189.097 37.3987L189.538 38.2963ZM162.418 39.3763L161.429 39.2274L161.256 40.3763H162.418V39.3763ZM164.738 23.9763L165.727 24.1253L165.75 23.9723L165.725 23.8194L164.738 23.9763ZM162.418 9.37634V8.37634H161.246L161.43 9.53328L162.418 9.37634ZM189.698 11.3363L189.046 12.0947L189.053 12.1008L189.06 12.1067L189.698 11.3363ZM191.138 20.2563L190.247 19.8009L191.138 20.2563ZM188.338 23.1763L188.855 24.0323L188.861 24.0283L188.868 24.0243L188.338 23.1763ZM169.858 37.5363L169.08 38.1653L170.498 39.9173L170.846 37.6908L169.858 37.5363ZM166.978 33.9763V32.9763H164.882L166.2 34.6053L166.978 33.9763ZM185.258 33.0563L185.906 33.8176L185.908 33.8156L185.258 33.0563ZM185.138 27.6563L184.483 28.412L184.496 28.4236L184.51 28.4348L185.138 27.6563ZM169.058 26.6163H168.058V27.6163H169.058V26.6163ZM169.058 21.3363V20.3363H168.058V21.3363H169.058ZM183.298 20.4163L183.946 21.1776L183.954 21.1708L183.962 21.1638L183.298 20.4163ZM183.458 15.6563L182.766 16.379L182.775 16.387L182.783 16.3948L183.458 15.6563ZM167.018 14.7763L166.236 14.1527L164.941 15.7763H167.018V14.7763ZM169.858 11.2163L170.844 11.0524L170.476 8.83753L169.076 10.5927L169.858 11.2163ZM171.978 23.9763L172.966 24.1308L172.991 23.9715L172.964 23.8124L171.978 23.9763ZM184.056 25.0533L184.696 23.5733L182.86 22.7794L182.22 24.2594L184.056 25.0533ZM183.755 24.1761C186.022 24.2276 187.799 24.5751 189.13 25.1695L189.945 23.3432C188.29 22.6042 186.227 22.2317 183.8 22.1766L183.755 24.1761ZM189.136 25.1721C190.508 25.774 191.452 26.573 192.045 27.5394L193.75 26.4933C192.903 25.113 191.607 24.072 189.939 23.3406L189.136 25.1721ZM192.06 27.562C192.689 28.5286 193.018 29.6678 193.018 31.0163H195.018C195.018 29.3248 194.6 27.7974 193.736 26.4707L192.06 27.562ZM193.018 31.0163C193.018 32.4539 192.684 33.7175 192.034 34.8325L193.761 35.8402C194.604 34.3951 195.018 32.7788 195.018 31.0163H193.018ZM192.039 34.8245C191.406 35.8871 190.445 36.7488 189.103 37.3956L189.972 39.1971C191.617 38.4039 192.896 37.2922 193.757 35.8481L192.039 34.8245ZM189.097 37.3987C187.807 38.0319 186.13 38.3763 184.018 38.3763V40.3763C186.332 40.3763 188.335 40.0008 189.978 39.194L189.097 37.3987ZM184.018 38.3763H162.418V40.3763H184.018V38.3763ZM163.407 39.5253L165.727 24.1253L163.749 23.8274L161.429 39.2274L163.407 39.5253ZM165.725 23.8194L163.405 9.2194L161.43 9.53328L163.75 24.1333L165.725 23.8194ZM162.418 10.3763H183.258V8.37634H162.418V10.3763ZM183.258 10.3763C185.883 10.3763 187.766 10.9947 189.046 12.0947L190.35 10.578C188.589 9.06465 186.179 8.37634 183.258 8.37634V10.3763ZM189.06 12.1067C190.346 13.1708 191.018 14.6444 191.018 16.6563H193.018C193.018 14.135 192.143 12.0619 190.335 10.5659L189.06 12.1067ZM191.018 16.6563C191.018 17.7468 190.764 18.7911 190.247 19.8009L192.028 20.7118C192.685 19.4282 193.018 18.0725 193.018 16.6563H191.018ZM190.247 19.8009C189.756 20.7607 188.961 21.6075 187.808 22.3283L188.868 24.0243C190.274 23.1451 191.346 22.0454 192.028 20.7118L190.247 19.8009ZM187.821 22.3204C186.714 22.989 185.143 23.456 183.041 23.6611L183.235 25.6516C185.506 25.43 187.401 24.9104 188.855 24.0323L187.821 22.3204ZM170.635 36.9074L167.755 33.3474L166.2 34.6053L169.08 38.1653L170.635 36.9074ZM166.978 34.9763H182.218V32.9763H166.978V34.9763ZM182.218 34.9763C183.672 34.9763 184.947 34.6349 185.906 33.8176L184.609 32.2951C184.129 32.7044 183.377 32.9763 182.218 32.9763V34.9763ZM185.908 33.8156C186.915 32.9533 187.378 31.7613 187.378 30.3763H185.378C185.378 31.2848 185.094 31.8794 184.607 32.2971L185.908 33.8156ZM187.378 30.3763C187.378 28.9549 186.848 27.7511 185.765 26.8779L184.51 28.4348C185.08 28.8949 185.378 29.5045 185.378 30.3763H187.378ZM185.793 26.9007C184.738 25.9863 183.26 25.6163 181.538 25.6163V27.6163C183.016 27.6163 183.938 27.9397 184.483 28.412L185.793 26.9007ZM181.538 25.6163H169.058V27.6163H181.538V25.6163ZM170.058 26.6163V21.3363H168.058V26.6163H170.058ZM169.058 22.3363H180.578V20.3363H169.058V22.3363ZM180.578 22.3363C181.869 22.3363 183.017 21.9687 183.946 21.1776L182.649 19.6551C182.138 20.0907 181.473 20.3363 180.578 20.3363V22.3363ZM183.962 21.1638C184.926 20.3073 185.378 19.1525 185.378 17.8163H183.378C183.378 18.6668 183.11 19.2454 182.633 19.6689L183.962 21.1638ZM185.378 17.8163C185.378 16.6742 184.966 15.6797 184.132 14.9179L182.783 16.3948C183.176 16.753 183.378 17.1985 183.378 17.8163H185.378ZM184.149 14.9337C183.288 14.1103 182.109 13.7763 180.778 13.7763V15.7763C181.793 15.7763 182.401 16.029 182.766 16.379L184.149 14.9337ZM180.778 13.7763H167.018V15.7763H180.778V13.7763ZM167.799 15.4L170.639 11.84L169.076 10.5927L166.236 14.1527L167.799 15.4ZM168.871 11.3802L170.991 24.1402L172.964 23.8124L170.844 11.0524L168.871 11.3802ZM170.99 23.8219L168.87 37.3819L170.846 37.6908L172.966 24.1308L170.99 23.8219ZM205.859 9.37634H206.859V8.37634H205.859V9.37634ZM205.859 36.0163L205.16 36.7318L206.859 38.3905V36.0163H205.859ZM202.459 32.6963V31.6963H200.003L201.76 33.4118L202.459 32.6963ZM224.939 32.6963H225.939V31.6963H224.939V32.6963ZM224.939 39.3763V40.3763H225.939V39.3763H224.939ZM198.299 39.3763H197.299V40.3763H198.299V39.3763ZM198.299 9.37634V8.37634H197.299V9.37634H198.299ZM204.859 9.37634V36.0163H206.859V9.37634H204.859ZM206.557 35.3009L203.157 31.9809L201.76 33.4118L205.16 36.7318L206.557 35.3009ZM202.459 33.6963H224.939V31.6963H202.459V33.6963ZM223.939 32.6963V39.3763H225.939V32.6963H223.939ZM224.939 38.3763H198.299V40.3763H224.939V38.3763ZM199.299 39.3763V9.37634H197.299V39.3763H199.299ZM198.299 10.3763H205.859V8.37634H198.299V10.3763ZM233.972 33.3363H232.972V34.3363H233.972V33.3363ZM233.972 27.2563V26.2563H232.972V27.2563H233.972ZM254.692 27.2563H255.692V26.2563H254.692V27.2563ZM254.692 33.3363V34.3363H255.692V33.3363H254.692ZM249.412 9.37634L250.32 8.95744L250.052 8.37634H249.412V9.37634ZM263.252 39.3763V40.3763H264.815L264.16 38.9574L263.252 39.3763ZM255.212 39.3763L254.298 39.7811L254.561 40.3763H255.212V39.3763ZM243.332 12.5363V11.5363H241.796L242.418 12.9411L243.332 12.5363ZM245.652 12.5363L246.567 12.9399L247.186 11.5363H245.652V12.5363ZM233.812 39.3763V40.3763H234.464L234.727 39.7799L233.812 39.3763ZM225.772 39.3763L224.864 38.9574L224.209 40.3763H225.772V39.3763ZM239.612 9.37634V8.37634H238.972L238.704 8.95744L239.612 9.37634ZM234.972 33.3363V27.2563H232.972V33.3363H234.972ZM233.972 28.2563H254.692V26.2563H233.972V28.2563ZM253.692 27.2563V33.3363H255.692V27.2563H253.692ZM254.692 32.3363H233.972V34.3363H254.692V32.3363ZM248.504 9.79524L262.344 39.7952L264.16 38.9574L250.32 8.95744L248.504 9.79524ZM263.252 38.3763H255.212V40.3763H263.252V38.3763ZM256.126 38.9716L244.246 12.1316L242.418 12.9411L254.298 39.7811L256.126 38.9716ZM243.332 13.5363H245.652V11.5363H243.332V13.5363ZM244.737 12.1327L232.897 38.9727L234.727 39.7799L246.567 12.9399L244.737 12.1327ZM233.812 38.3763H225.772V40.3763H233.812V38.3763ZM226.68 39.7952L240.52 9.79524L238.704 8.95744L224.864 38.9574L226.68 39.7952ZM239.612 10.3763H249.412V8.37634H239.612V10.3763ZM297.469 26.9763L298.462 27.089L298.588 25.9763H297.469V26.9763ZM294.789 33.8163L295.582 34.425L295.586 34.4198L294.789 33.8163ZM288.869 38.3763L288.462 37.4629L288.869 38.3763ZM271.389 38.0563L270.938 38.9489L270.941 38.9508L271.389 38.0563ZM265.349 32.5763L264.496 33.0994L265.349 32.5763ZM265.349 16.1763L264.496 15.6533L265.349 16.1763ZM271.389 10.6963L270.941 9.80191L270.938 9.80376L271.389 10.6963ZM294.789 14.9363L293.995 15.545V15.545L294.789 14.9363ZM297.469 21.7763V22.7763H298.587L298.462 21.6648L297.469 21.7763ZM289.869 21.7763L288.887 21.9688L289.046 22.7763H289.869V21.7763ZM288.229 18.2963L287.46 18.9365L287.466 18.9427L287.471 18.9489L288.229 18.2963ZM285.029 16.0963L284.651 17.0222L284.662 17.0268L284.673 17.0311L285.029 16.0963ZM275.309 16.4163L275.756 17.3108L275.762 17.3075L275.769 17.3041L275.309 16.4163ZM271.989 19.5363L272.858 20.0306L271.989 19.5363ZM271.989 29.2163L271.119 29.7106V29.7106L271.989 29.2163ZM275.309 32.3763L274.848 33.2641L274.855 33.2675L274.861 33.2708L275.309 32.3763ZM285.029 32.6963L284.673 31.7615L284.667 31.764L285.029 32.6963ZM288.229 30.4963L287.471 29.8438L287.466 29.8499L287.46 29.8562L288.229 30.4963ZM289.869 26.9763V25.9763H289.043L288.887 26.7875L289.869 26.9763ZM296.475 26.8637C296.201 29.2818 295.371 31.3901 293.991 33.2129L295.586 34.4198C297.193 32.2959 298.15 29.8443 298.462 27.089L296.475 26.8637ZM293.995 33.2077C292.613 35.0099 290.777 36.4308 288.462 37.4629L289.276 39.2897C291.866 38.1352 293.978 36.5161 295.582 34.425L293.995 33.2077ZM288.462 37.4629C286.156 38.4902 283.499 39.0163 280.469 39.0163V41.0163C283.732 41.0163 286.674 40.4491 289.276 39.2897L288.462 37.4629ZM280.469 39.0163C277.156 39.0163 274.288 38.3879 271.836 37.1619L270.941 38.9508C273.716 40.3382 276.901 41.0163 280.469 41.0163V39.0163ZM271.839 37.1638C269.409 35.9361 267.539 34.2335 266.201 32.0533L264.496 33.0994C266.038 35.6125 268.195 37.5633 270.938 38.9489L271.839 37.1638ZM266.201 32.0533C264.87 29.8842 264.189 27.3369 264.189 24.3763H262.189C262.189 27.6558 262.947 30.5752 264.496 33.0994L266.201 32.0533ZM264.189 24.3763C264.189 21.4158 264.87 18.8685 266.201 16.6994L264.496 15.6533C262.947 18.1775 262.189 21.0969 262.189 24.3763H264.189ZM266.201 16.6994C267.539 14.5192 269.409 12.8166 271.839 11.5889L270.938 9.80376C268.195 11.1894 266.038 13.1402 264.496 15.6533L266.201 16.6994ZM271.836 11.5908C274.288 10.3648 277.156 9.73634 280.469 9.73634V7.73634C276.901 7.73634 273.716 8.41452 270.941 9.80191L271.836 11.5908ZM280.469 9.73634C283.499 9.73634 286.156 10.2625 288.462 11.2897L289.276 9.46294C286.674 8.30356 283.732 7.73634 280.469 7.73634V9.73634ZM288.462 11.2897C290.777 12.3218 292.613 13.7428 293.995 15.545L295.582 14.3277C293.978 12.2366 291.866 10.6175 289.276 9.46294L288.462 11.2897ZM293.995 15.545C295.37 17.3369 296.2 19.4419 296.475 21.8879L298.462 21.6648C298.15 18.8841 297.194 16.4291 295.582 14.3277L293.995 15.545ZM297.469 20.7763H289.869V22.7763H297.469V20.7763ZM290.85 21.5839C290.553 20.0702 289.937 18.7473 288.986 17.6438L287.471 18.9489C288.174 19.7653 288.651 20.7625 288.887 21.9688L290.85 21.5839ZM288.997 17.6562C288.072 16.5464 286.855 15.7205 285.384 15.1616L284.673 17.0311C285.869 17.4855 286.785 18.1263 287.46 18.9365L288.997 17.6562ZM285.406 15.1705C283.956 14.5784 282.303 14.2963 280.469 14.2963V16.2963C282.101 16.2963 283.488 16.5476 284.651 17.0222L285.406 15.1705ZM280.469 14.2963C278.345 14.2963 276.46 14.6929 274.848 15.5286L275.769 17.3041C277.037 16.6464 278.592 16.2963 280.469 16.2963V14.2963ZM274.861 15.5219C273.25 16.3278 271.994 17.5046 271.119 19.042L272.858 20.0306C273.53 18.8481 274.488 17.9449 275.756 17.3108L274.861 15.5219ZM271.119 19.042C270.245 20.5794 269.829 22.3699 269.829 24.3763H271.829C271.829 22.6495 272.185 21.2133 272.858 20.0306L271.119 19.042ZM269.829 24.3763C269.829 26.3828 270.245 28.1733 271.119 29.7106L272.858 28.722C272.185 27.5394 271.829 26.1032 271.829 24.3763H269.829ZM271.119 29.7106C271.992 31.2449 273.243 32.432 274.848 33.2641L275.769 31.4886C274.494 30.8274 273.532 29.9077 272.858 28.722L271.119 29.7106ZM274.861 33.2708C276.47 34.075 278.35 34.4563 280.469 34.4563V32.4563C278.587 32.4563 277.027 32.1177 275.756 31.4819L274.861 33.2708ZM280.469 34.4563C282.297 34.4563 283.944 34.1893 285.39 33.6287L284.667 31.764C283.499 32.2167 282.107 32.4563 280.469 32.4563V34.4563ZM285.384 33.6311C286.855 33.0721 288.072 32.2463 288.997 31.1365L287.46 29.8562C286.785 30.6664 285.869 31.3072 284.673 31.7616L285.384 33.6311ZM288.986 31.1489C289.94 30.0418 290.555 28.7032 290.851 27.1652L288.887 26.7875C288.649 28.0228 288.171 29.0308 287.471 29.8438L288.986 31.1489ZM289.869 27.9763H297.469V25.9763H289.869V27.9763ZM301.697 39.3763H300.697V40.3763H301.697V39.3763ZM301.697 9.37634V8.37634H300.697V9.37634H301.697ZM309.217 9.37634H310.217V8.37634H309.217V9.37634ZM309.217 33.3363L308.61 34.1307L310.217 35.3599V33.3363H309.217ZM307.177 31.7763L306.393 31.1551L305.761 31.9525L306.57 32.5707L307.177 31.7763ZM324.937 9.37634V8.37634H324.454L324.153 8.75506L324.937 9.37634ZM332.937 9.37634L333.712 10.0079L335.042 8.37634H332.937V9.37634ZM308.497 39.3763V40.3763H308.972L309.272 40.0079L308.497 39.3763ZM316.057 24.8563L315.405 24.0983L314.766 24.6482L315.2 25.3712L316.057 24.8563ZM321.497 20.1763L322.348 19.6515L321.733 18.6541L320.845 19.4183L321.497 20.1763ZM333.337 39.3763V40.3763H335.129L334.188 38.8515L333.337 39.3763ZM324.777 39.3763L323.92 39.8912L324.211 40.3763H324.777V39.3763ZM302.697 39.3763V9.37634H300.697V39.3763H302.697ZM301.697 10.3763H309.217V8.37634H301.697V10.3763ZM308.217 9.37634V33.3363H310.217V9.37634H308.217ZM309.824 32.542L307.784 30.982L306.57 32.5707L308.61 34.1307L309.824 32.542ZM307.961 32.3976L325.721 9.99762L324.153 8.75506L306.393 31.1551L307.961 32.3976ZM324.937 10.3763H332.937V8.37634H324.937V10.3763ZM332.162 8.74474L307.722 38.7447L309.272 40.0079L333.712 10.0079L332.162 8.74474ZM308.497 38.3763H301.697V40.3763H308.497V38.3763ZM316.709 25.6144L322.149 20.9344L320.845 19.4183L315.405 24.0983L316.709 25.6144ZM320.646 20.7012L332.486 39.9012L334.188 38.8515L322.348 19.6515L320.646 20.7012ZM333.337 38.3763H324.777V40.3763H333.337V38.3763ZM325.634 38.8615L316.914 24.3415L315.2 25.3712L323.92 39.8912L325.634 38.8615ZM349.166 21.8563V20.8563H348.166V21.8563H349.166ZM370.886 21.8563H371.886V20.8563H370.886V21.8563ZM370.886 28.2963V29.2963H371.886V28.2963H370.886ZM349.166 28.2963H348.166V29.2963H349.166V28.2963ZM371.606 9.37634H372.606V8.37634H371.606V9.37634ZM371.606 15.8163V16.8163H372.606V15.8163H371.606ZM349.326 15.8163L348.619 15.1092L346.912 16.8163H349.326V15.8163ZM353.046 12.0963H354.046V9.68213L352.339 11.3892L353.046 12.0963ZM353.046 39.3763V40.3763H354.046V39.3763H353.046ZM345.486 39.3763H344.486V40.3763H345.486V39.3763ZM345.486 9.37634V8.37634H344.486V9.37634H345.486ZM349.166 22.8563H370.886V20.8563H349.166V22.8563ZM369.886 21.8563V28.2963H371.886V21.8563H369.886ZM370.886 27.2963H349.166V29.2963H370.886V27.2963ZM350.166 28.2963V21.8563H348.166V28.2963H350.166ZM370.606 9.37634V15.8163H372.606V9.37634H370.606ZM371.606 14.8163H349.326V16.8163H371.606V14.8163ZM350.033 16.5234L353.753 12.8034L352.339 11.3892L348.619 15.1092L350.033 16.5234ZM352.046 12.0963V39.3763H354.046V12.0963H352.046ZM353.046 38.3763H345.486V40.3763H353.046V38.3763ZM346.486 39.3763V9.37634H344.486V39.3763H346.486ZM345.486 10.3763H371.606V8.37634H345.486V10.3763ZM381.234 22.5763V21.5763H380.234V22.5763H381.234ZM395.834 21.6163L396.446 22.4071L396.454 22.401L396.462 22.3948L395.834 21.6163ZM395.834 16.1363L395.206 16.9148L395.214 16.921L395.222 16.9271L395.834 16.1363ZM380.154 15.1363L379.416 14.4617L377.885 16.1363H380.154V15.1363ZM383.554 11.4163H384.554V8.83996L382.816 10.7417L383.554 11.4163ZM383.554 39.3763V40.3763H384.554V39.3763H383.554ZM375.994 39.3763H374.994V40.3763H375.994V39.3763ZM375.994 9.37634V8.37634H374.994V9.37634H375.994ZM399.354 10.5763L398.924 11.4792L399.354 10.5763ZM403.274 13.8963L404.108 13.3453L403.274 13.8963ZM403.274 23.7763L404.108 24.3274L403.274 23.7763ZM399.354 27.0963L399.772 28.0048L399.784 27.9992L399.354 27.0963ZM381.234 28.2563H380.234V29.2563H381.234V28.2563ZM386.074 25.3363V24.3363H384.043L385.281 25.9461L386.074 25.3363ZM394.594 25.3363L395.38 24.7182L395.08 24.3363H394.594V25.3363ZM405.634 39.3763V40.3763H407.692L406.42 38.7582L405.634 39.3763ZM396.874 39.3763L396.081 39.9861L396.382 40.3763H396.874V39.3763ZM381.234 23.5763H392.474V21.5763H381.234V23.5763ZM392.474 23.5763C394.031 23.5763 395.392 23.2235 396.446 22.4071L395.222 20.8256C394.623 21.2892 393.743 21.5763 392.474 21.5763V23.5763ZM396.462 22.3948C397.55 21.5167 398.074 20.296 398.074 18.8563H396.074C396.074 19.7633 395.771 20.3826 395.206 20.8379L396.462 22.3948ZM398.074 18.8563C398.074 17.4168 397.55 16.2 396.446 15.3456L395.222 16.9271C395.772 17.3527 396.074 17.9492 396.074 18.8563H398.074ZM396.462 15.3579C395.406 14.5066 394.04 14.1363 392.474 14.1363V16.1363C393.735 16.1363 394.608 16.4327 395.206 16.9148L396.462 15.3579ZM392.474 14.1363H380.154V16.1363H392.474V14.1363ZM380.892 15.811L384.292 12.091L382.816 10.7417L379.416 14.4617L380.892 15.811ZM382.554 11.4163V39.3763H384.554V11.4163H382.554ZM383.554 38.3763H375.994V40.3763H383.554V38.3763ZM376.994 39.3763V9.37634H374.994V39.3763H376.994ZM375.994 10.3763H393.474V8.37634H375.994V10.3763ZM393.474 10.3763C395.595 10.3763 397.403 10.7549 398.924 11.4792L399.784 9.67348C397.945 8.79782 395.833 8.37634 393.474 8.37634V10.3763ZM398.924 11.4792C400.456 12.2089 401.616 13.2007 402.439 14.4474L404.108 13.3453C403.065 11.7653 401.611 10.5438 399.784 9.67348L398.924 11.4792ZM402.439 14.4474C403.252 15.6784 403.674 17.135 403.674 18.8563H405.674C405.674 16.791 405.162 14.941 404.108 13.3453L402.439 14.4474ZM403.674 18.8563C403.674 20.5479 403.254 21.992 402.439 23.2253L404.108 24.3274C405.161 22.734 405.674 20.8981 405.674 18.8563H403.674ZM402.439 23.2253C401.616 24.472 400.456 25.4638 398.924 26.1935L399.784 27.9992C401.611 27.1289 403.065 25.9074 404.108 24.3274L402.439 23.2253ZM398.936 26.188C397.412 26.8896 395.599 27.2563 393.474 27.2563V29.2563C395.828 29.2563 397.936 28.8498 399.772 28.0047L398.936 26.188ZM393.474 27.2563H381.234V29.2563H393.474V27.2563ZM382.234 28.2563V22.5763H380.234V28.2563H382.234ZM386.074 26.3363H394.594V24.3363H386.074V26.3363ZM393.808 25.9545L404.848 39.9945L406.42 38.7582L395.38 24.7182L393.808 25.9545ZM405.634 38.3763H396.874V40.3763H405.634V38.3763ZM397.667 38.7666L386.867 24.7266L385.281 25.9461L396.081 39.9861L397.667 38.7666ZM409.588 9.37634V8.37634H408.588V9.37634H409.588ZM417.148 9.37634H418.148V8.37634H417.148V9.37634ZM417.148 39.3763V40.3763H418.148V39.3763H417.148ZM409.588 39.3763H408.588V40.3763H409.588V39.3763ZM409.588 10.3763H417.148V8.37634H409.588V10.3763ZM416.148 9.37634V39.3763H418.148V9.37634H416.148ZM417.148 38.3763H409.588V40.3763H417.148V38.3763ZM410.588 39.3763V9.37634H408.588V39.3763H410.588ZM446.866 11.2563L446.437 12.1597L446.866 11.2563ZM453.026 16.4963L452.189 17.0441L452.194 17.051L453.026 16.4963ZM453.026 32.2563L452.191 31.7062L452.189 31.7086L453.026 32.2563ZM446.866 37.4963L446.437 36.593L446.866 37.4963ZM422.986 39.3763H421.986V40.3763H422.986V39.3763ZM422.986 9.37634V8.37634H421.986V9.37634H422.986ZM430.506 36.2963L429.807 37.0112L431.506 38.6735V36.2963H430.506ZM426.826 32.6963V31.6963H424.374L426.127 33.4112L426.826 32.6963ZM443.186 31.6563L442.746 30.7586L443.186 31.6563ZM446.466 28.7763L447.312 29.3097L447.317 29.3014L446.466 28.7763ZM446.466 19.9763L445.62 20.5096L446.466 19.9763ZM443.186 17.0963L443.627 16.1986V16.1986L443.186 17.0963ZM426.826 16.0563L426.127 15.3415L424.374 17.0563H426.826V16.0563ZM430.506 12.4563H431.506V10.0792L429.807 11.7415L430.506 12.4563ZM437.626 10.3763C441.028 10.3763 443.956 10.9817 446.437 12.1597L447.295 10.353C444.496 9.02434 441.265 8.37634 437.626 8.37634V10.3763ZM446.437 12.1597C448.927 13.3417 450.833 14.9718 452.189 17.0441L453.863 15.9486C452.286 13.5409 450.085 11.6777 447.295 10.353L446.437 12.1597ZM452.194 17.051C453.565 19.1076 454.266 21.536 454.266 24.3763H456.266C456.266 21.19 455.474 18.3651 453.858 15.9416L452.194 17.051ZM454.266 24.3763C454.266 27.1878 453.566 29.6191 452.191 31.7062L453.861 32.8065C455.473 30.3603 456.266 27.5382 456.266 24.3763H454.266ZM452.189 31.7086C450.833 33.7809 448.927 35.411 446.437 36.593L447.295 38.3997C450.085 37.075 452.286 35.2118 453.863 32.8041L452.189 31.7086ZM446.437 36.593C443.956 37.771 441.028 38.3763 437.626 38.3763V40.3763C441.265 40.3763 444.496 39.7283 447.295 38.3997L446.437 36.593ZM437.626 38.3763H422.986V40.3763H437.626V38.3763ZM423.986 39.3763V9.37634H421.986V39.3763H423.986ZM422.986 10.3763H437.626V8.37634H422.986V10.3763ZM431.205 35.5815L427.525 31.9815L426.127 33.4112L429.807 37.0112L431.205 35.5815ZM426.826 33.6963H438.186V31.6963H426.826V33.6963ZM438.186 33.6963C440.226 33.6963 442.049 33.3279 443.627 32.5541L442.746 30.7586C441.496 31.3715 439.986 31.6963 438.186 31.6963V33.6963ZM443.627 32.5541C445.191 31.7865 446.431 30.7064 447.312 29.3096L445.62 28.243C444.954 29.2996 444.007 30.1396 442.746 30.7586L443.627 32.5541ZM447.317 29.3014C448.201 27.869 448.626 26.2151 448.626 24.3763H446.626C446.626 25.8976 446.278 27.177 445.615 28.2512L447.317 29.3014ZM448.626 24.3763C448.626 22.5148 448.203 20.8558 447.312 19.443L445.62 20.5096C446.276 21.5502 446.626 22.8245 446.626 24.3763H448.626ZM447.312 19.443C446.431 18.0463 445.191 16.9662 443.627 16.1986L442.746 17.9941C444.007 18.6131 444.954 19.453 445.62 20.5096L447.312 19.443ZM443.627 16.1986C442.049 15.4248 440.226 15.0563 438.186 15.0563V17.0563C439.986 17.0563 441.496 17.3812 442.746 17.9941L443.627 16.1986ZM438.186 15.0563H426.826V17.0563H438.186V15.0563ZM427.525 16.7712L431.205 13.1712L429.807 11.7415L426.127 15.3415L427.525 16.7712ZM429.506 12.4563V36.2963H431.506V12.4563H429.506ZM463.269 33.3363H462.269V34.3363H463.269V33.3363ZM463.269 27.2563V26.2563H462.269V27.2563H463.269ZM483.989 27.2563H484.989V26.2563H483.989V27.2563ZM483.989 33.3363V34.3363H484.989V33.3363H483.989ZM478.709 9.37634L479.617 8.95744L479.349 8.37634H478.709V9.37634ZM492.549 39.3763V40.3763H494.112L493.457 38.9574L492.549 39.3763ZM484.509 39.3763L483.594 39.7811L483.858 40.3763H484.509V39.3763ZM472.629 12.5363V11.5363H471.093L471.714 12.9411L472.629 12.5363ZM474.949 12.5363L475.864 12.9399L476.483 11.5363H474.949V12.5363ZM463.109 39.3763V40.3763H463.761L464.024 39.7799L463.109 39.3763ZM455.069 39.3763L454.161 38.9574L453.506 40.3763H455.069V39.3763ZM468.909 9.37634V8.37634H468.269L468.001 8.95744L468.909 9.37634ZM464.269 33.3363V27.2563H462.269V33.3363H464.269ZM463.269 28.2563H483.989V26.2563H463.269V28.2563ZM482.989 27.2563V33.3363H484.989V27.2563H482.989ZM483.989 32.3363H463.269V34.3363H483.989V32.3363ZM477.801 9.79524L491.641 39.7952L493.457 38.9574L479.617 8.95744L477.801 9.79524ZM492.549 38.3763H484.509V40.3763H492.549V38.3763ZM485.423 38.9716L473.543 12.1316L471.714 12.9411L483.594 39.7811L485.423 38.9716ZM472.629 13.5363H474.949V11.5363H472.629V13.5363ZM474.034 12.1327L462.194 38.9727L464.024 39.7799L475.864 12.9399L474.034 12.1327ZM463.109 38.3763H455.069V40.3763H463.109V38.3763ZM455.977 39.7952L469.817 9.79524L468.001 8.95744L454.161 38.9574L455.977 39.7952ZM468.909 10.3763H478.709V8.37634H468.909V10.3763ZM500.795 39.3763H499.795V40.3763H500.795V39.3763ZM500.795 24.8563V23.8563H499.795V24.8563H500.795ZM508.355 24.8563H509.355V23.8563H508.355V24.8563ZM508.355 39.3763V40.3763H509.355V39.3763H508.355ZM486.715 9.37634V8.37634H484.658L485.929 9.99416L486.715 9.37634ZM495.075 9.37634L495.861 8.75813L495.561 8.37634H495.075V9.37634ZM506.275 23.6163V24.6163H508.334L507.061 22.9981L506.275 23.6163ZM502.795 23.6163L502.009 22.9981L500.736 24.6163H502.795V23.6163ZM513.995 9.37634V8.37634H513.509L513.209 8.75813L513.995 9.37634ZM522.355 9.37634L523.141 9.99473L524.414 8.37634H522.355V9.37634ZM506.995 28.8963L507.012 29.8962L507.487 29.8884L507.781 29.5147L506.995 28.8963ZM502.115 28.9763L501.329 29.5942L501.635 29.9843L502.132 29.9762L502.115 28.9763ZM501.795 39.3763V24.8563H499.795V39.3763H501.795ZM500.795 25.8563H508.355V23.8563H500.795V25.8563ZM507.355 24.8563V39.3763H509.355V24.8563H507.355ZM508.355 38.3763H500.795V40.3763H508.355V38.3763ZM486.715 10.3763H495.075V8.37634H486.715V10.3763ZM494.289 9.99455L505.489 24.2346L507.061 22.9981L495.861 8.75813L494.289 9.99455ZM506.275 22.6163H502.795V24.6163H506.275V22.6163ZM503.581 24.2346L514.781 9.99455L513.209 8.75813L502.009 22.9981L503.581 24.2346ZM513.995 10.3763H522.355V8.37634H513.995V10.3763ZM521.569 8.75795L506.209 28.278L507.781 29.5147L523.141 9.99473L521.569 8.75795ZM506.979 27.8965L502.099 27.9765L502.132 29.9762L507.012 29.8962L506.979 27.8965ZM502.901 28.3585L487.501 8.75852L485.929 9.99416L501.329 29.5942L502.901 28.3585Z" fill="#FFEB1C" mask="url(#path-3-outside-2_1_1397)"/>
</svg>
